<?xml version="1.0" encoding="UTF-8"?>
<svg id="b" xmlns="http://www.w3.org/2000/svg" viewBox="0 0 3553.06 903.53">
    <defs>
        <style>.d{fill:#646463;}
            .d,.e,.f{stroke-width:0px;}.e{fill:#000;}
            .f{fill:#000;}

            @media (prefers-color-scheme: dark) {
            .e{fill:#fbbd24;}
            .f{fill:#fff;}
            } </style>
    </defs>
    <g id="c">
        <path class="e"
            d="m627.29,62.12c-3.91,15.67-9.94,34.29-19.75,54.26-16.19,33.21-36.29,56.99-51.92,72.71-9.77-11.46-20.84-23.48-33.42-35.77-13.41-12.98-26.48-24.4-38.85-34.21,16.67-13.93,44.02-33.21,81.95-45.53,23.79-7.64,45.23-10.5,61.99-11.46Z" />
        <path class="e"
            d="m797.58,614.48c-11.24-3.04-30.34-6.55-53.39-2.82-15.45,2.47-27.78,7.38-36.38,11.63-.22-4.99-1-11.85-3.52-19.66-2.47-7.86-5.86-13.98-8.73-18.23,12.85,1.39,27.17,3.82,42.67,7.68,23.35,5.9,43.23,13.76,59.34,21.4Z" />
        <path class="e"
            d="m835.17,748.05c-23.35-1.69-52.65-1.48-85.86,4.21-20.18,3.52-38.11,8.29-53.52,13.5,1.17-6.77,2.26-13.59,3.3-20.49,1.09-6.99,2.13-13.93,3.13-20.79,15.11-.95,32.95-.87,52.83,1.52,33.25,4.12,60.42,13.37,80.13,22.05Z" />
        <path class="e"
            d="m869.98,680.12c-26.09-5.25-63.38-9.25-107-2.56-21.01,3.21-39.37,8.29-54.78,13.72.65-6.21,1.17-12.98,1.3-20.18.17-7.77-.04-14.89-.56-21.44,16.58-.3,35.03.43,54.91,2.73,42.89,5.21,78.74,16.49,106.13,27.74Z" />
        <path class="f"
            d="m586.09,838.34c-20.27,48.7-83.65,76.83-139.6,60.55-25.05-7.29-47.23-19.53-65.2-46.4,67.41-1.48,127.19-13.85,179.45-50.83,8.38-5.9,12.98-3.17,19.1,3.21,9.59,10.07,11.89,20.05,6.25,33.47Z" />
        <path class="f"
            d="m682.98,675.12c-.09,2.82-.26,5.86-.56,9.16-.09.82-.13,1.65-.22,2.52-.17,1.52-.35,3.08-.52,4.69-.09.87-.17,1.69-.3,2.56-.13,1.13-.3,2.3-.48,3.47-.56,3.78-1.26,7.68-2.17,11.72-.52,2.43-1.13,4.86-1.78,7.38-.04.17-.09.39-.17.56-.22,1.04-.52,2.08-.87,3.13-.13.61-.3,1.22-.52,1.78-.17.61-.35,1.17-.52,1.78-.52,1.69-1.09,3.39-1.69,5.08-.17.48-.35.95-.52,1.48-.17.48-.35.96-.52,1.48-.74,1.95-1.52,3.95-2.34,5.95-1.74,4.17-3.69,8.42-5.9,12.63-.48.91-.95,1.78-1.43,2.65-.48.87-.95,1.78-1.52,2.69v.04s0,.04-.04.04c-.69,1.22-1.43,2.47-2.21,3.69-.78,1.35-1.65,2.65-2.52,3.95-.87,1.35-1.74,2.65-2.69,3.95-.91,1.3-1.87,2.6-2.87,3.91-2.6,3.47-5.3,6.73-8.03,9.77-1.09,1.22-2.17,2.39-3.26,3.52l-.87.87c-1.35,1.43-2.73,2.78-4.08,4.08l-.04.04c-.26-.09-.56-.22-.87-.35-.35-.09-.69-.22-1.09-.39-.69-.3-1.48-.61-2.26-1-.43-.17-.82-.35-1.26-.56-.87-.43-1.74-.91-2.65-1.43-.48-.26-.95-.56-1.43-.87-2.65-1.78-13.59-8.86-16.58-20.45-1.74-6.95-.04-13.2,1.56-17.45.35-1,.74-1.87,1.04-2.65.3-.78.65-1.56,1.09-2.34.39-.78.82-1.56,1.26-2.39.43-.78.91-1.61,1.39-2.39.48-.82,1-1.61,1.56-2.43.52-.82,1.09-1.61,1.69-2.43s1.22-1.65,1.87-2.47c1.26-1.65,2.6-3.3,4.04-4.95.82-.96,1.65-1.87,2.52-2.82,1.74-1.87,3.52-3.78,5.34-5.6,1.43-1.43,2.91-2.86,4.38-4.3l.09-.09s.13-.13.17-.13c.96-.96,1.91-1.82,2.87-2.69,5.17-4.73,10.46-9.25,15.58-13.37,1.26-1.04,2.52-2.04,3.78-3.04,1.87-1.48,3.69-2.86,5.43-4.17.22-.17.43-.35.65-.52,1.39-1.04,2.69-2.04,3.95-2.95,2.82-2.08,5.34-3.95,7.51-5.47.82-.61,1.61-1.13,2.3-1.61.13-.13.26-.22.39-.26.52-.39,1-.69,1.43-1,.91-.65,1.65-1.13,2.21-1.52.13-.09.26-.17.35-.26.13-.09.22-.17.3-.22h.04Z" />
        <path class="e"
            d="m664.32,579.37h.13c-59.95-91.81-78.39-120.89-85.08-131.7-.56-1-1.69-2.65-3-4.99-5.08-8.59-15.15-27.43-21.92-52.44-5.82-21.83-8.16-44.54-6.99-68.32.04-.95.09-1.82.17-2.73.09-.87.22-1.74.35-2.6,0-.17.04-.3.09-.43.26-1.61.61-3.17,1.04-4.64.26-.82.52-1.61.82-2.34.22-.52.43-1,.65-1.52.43-.91.87-1.78,1.43-2.6v-.04c3.69-5.95,9.85-9.38,19.19-9.25,5.3.09,9.25,2.13,11.46,3.21,6.68,3.43,21.01,13.41,27.22,31.77.35,1,.61,1.95.87,2.91.22.95.48,1.91.69,2.86.39,1.82.69,3.65.87,5.38.56,5.12.39,9.94-.26,14.32-.09.69-.22,1.39-.35,2.08-.13.69-.26,1.39-.39,2.04-.26,1.3-.61,2.56-.91,3.78-.52,1.78-1.04,3.47-1.61,4.99-1.69,4.47-3.39,7.6-4.04,8.73.09-.13.22-.22.3-.35,13.41-17.36,20.01-30.73,22.96-40.85.17-.69.35-1.35.52-2,.61-2.43.96-4.64,1.17-6.64.09-.69.13-1.39.17-2.08.04-1.39.04-2.65,0-3.82-.26-4.69-1.43-7.94-2.43-10.03-2.95-6.25-7.08-8.46-38.11-34.25-7.21-6.08-16.45-10.33-21.57-18.27C480.01,124.23,350.82,70.28,194.64,70.06c-15.11,0-35.38-6.95-44.67,2.73-.48.48-.91.91-1.3,1.43-7.99,10.98,10.9,25.96,14.63,40.37.74,2.78,1.69,5.51,2.74,8.16,3.73,10.29,6.6,20.49,1.56,29.08-.26.48-.56.91-.87,1.39-.69,1.09-1.56,2.13-2.65,3.17-1.52,1.48-3.34,2.91-5.56,4.25-13.41,7.94-21.66.87-29.43-7.47-11.03-45.62-32.34-94.85-74.92-126.88C34.03,11.16,14.24,3.86.35.09v-.09h-.35v550.27c0,.22.01.44.02.65,0-.19.02-.37.03-.56,0-.13.04-.35.13-.61,4.95-19.71,14.06-33.16,19.1-41.02,9.12-14.11,25.91-36.29,55.08-56.69h.04s0,0,0,0c-3.38-10.75-6.4-21.67-10.3-32.27-4.52-12.29-3.94-23.06,9.72-27.9,13.97-4.97,21.2,4.59,25.44,15.92,3.29,8.84,6.07,17.89,8.8,26.96.69,2.28,1.41,4.59,2.11,6.87.34,1.07.67,2.17,1.01,3.25.31,1.07.65,2.17.99,3.25h.02v.02s.03,0,.05,0v-.04c.43,0,.91.04,1.35.04h.17c1,0,2.04.09,3.04.09,3.17.22,6.12.43,9.2.82,1.48.22,2.99.35,4.51.65,1.35.13,2.6.35,3.95.65,1.39.22,2.6.52,3.99.74,1.78.35,3.52.78,5.25,1.26l3.21.78,1.04.3.35.09c1.26.35,2.47.69,3.73,1.09.26.09.48.13.78.22,1.22.35,2.47.78,3.73,1.17.26.13.56.17.78.26,1.17.35,2.34.78,3.52,1.17,1.04.35,2.17.78,3.26,1.17.35.13.65.22.96.35.56.13,1.09.35,1.61.61,3.86,1.43,7.64,2.91,11.5,4.51.74.3,1.48.61,2.21.87,2,.91,4.12,1.78,6.16,2.69h.09c3.3,1.43,6.55,2.91,9.85,4.3,1.69.74,3.3,1.48,4.9,2.21,1.69.74,3.3,1.48,4.91,2.13h.09c.78.35,1.61.74,2.43,1.09.78.39,1.61.74,2.39,1.04-.04.04-.09.04-.22.09-.12.04-.24.08-.4.12.29-.07.53-.13.68-.16h.04c7.23.9,13.26,1.79,17.73,2.49,6.65,1.05,9.23,1.59,11.04,1.99,2.6.58,6.99,1.66,12.94,3.65h.05c4.52,1.52,8.22,2.75,11.15,3.9,4.84,1.84,7.7,3.38,9.18,5.46,3.76,5.31,4.14,13.77.45,19.44-.02.03-.55.68-.52.72,0,0,.02,0,.03,0,.95.52,1.91,1.17,2.86,1.82.43.3.96.69,1.48,1.04,1.39,1.04,2.65,2.13,3.95,3.3.65.56,1.35,1.17,1.91,1.74l.87.87c.95.96,1.87,1.95,2.65,2.91v.09c1.17,1.3,2.21,2.69,3.17,4.17.52.74,1.04,1.48,1.48,2.26v.14s.03-.09.04-.14t.05-.04c8.78-9.83,26.24-3.72,28.06-3.07.29.11.63.22,1.01.36,2.19.85,5.53,2.44,8.78,5.4.02.05.07.07.09.09.09.09.18.16.27.25.04.04.07.09.11.11.11.09.2.2.31.31.13.11.25.25.36.36.2.2.38.4.58.6.87.96,1.63,1.93,2.28,2.89.13.25.29.49.45.74,1.86,3.18,2.44,6.36,2.15,9.54-.04.56-.11,1.12-.22,1.68-.07.36-.16.72-.22,1.07-.27,1.05-.6,2.13-1.01,3.18-.13.36-.29.69-.43,1.05-.31.72-.65,1.41-.99,2.1-1.07,2.1-2.35,4.16-3.72,6.22h-.02s0,0,.01.01c5.43,4.43,10.81,8.94,16.41,13.93,7.16,6.38,13.89,12.72,20.1,19.01,4.21-1.82,8.38-3.65,12.59-5.56,19.58-6.55,46.1-13.11,77.61-14.63,10.5-.52,20.31-.43,29.52.09.3-.04.56-.09.87-.13,25.26-4.03,55.13-7.07,88.68-7.16,33.63-.1,63.58,2.78,88.9,6.68ZM33.73,139.13c-1.57-8.8-3.61-18.16-6.28-27.96-5.21-19.17-11.69-35.95-18.26-50.21,12.09,5.91,27.84,15.34,43.36,30.24,8.85,8.5,15.77,16.98,21.11,24.53-4.24,4.15-10.08,9.09-17.69,13.65-8.38,5.02-16.2,7.97-22.24,9.74Zm44.35,122.11c-4.92,7.15-13.77,5.39-19.53-1.84-6.07-7.62-6.44-34.53-.28-39.83,6.03-4.37,13.64-4.87,17.3,2.48,6.15,12.34,11.24,26.5,2.51,39.19Zm79.49,66.02c-.63-.04-1.28-.13-1.95-.29-.36-.07-.69-.13-1.05-.25-.65-.16-1.32-.38-2.02-.63-1.19-.43-2.42-.94-3.69-1.57-1.05-.54-2.15-1.12-3.25-1.75-.56-.34-1.14-.67-1.72-1.03-1.03-.65-2.08-1.34-3.13-2.08-.65-.45-1.3-.9-1.95-1.39-11.35-8.37-22.12-20.6-21.92-27.59,1.14-10.17,7.68-18.34,18.52-15.27,2.06.58,4.14,1.21,6.22,1.9,1.01.31,2.02.67,3.02,1.03.83.29,1.66.6,2.46.92.31.09.6.2.87.34.78.29,1.57.6,2.33.96.18.02.34.11.49.2.76.31,1.52.65,2.26,1.01.9.4,1.79.83,2.64,1.3.72.36,1.41.74,2.1,1.16,1.28.69,2.51,1.48,3.72,2.31.83.54,1.61,1.12,2.37,1.72,1.48,1.14,2.89,2.37,4.21,3.72,1.08,1.1,2.11,2.26,3.05,3.52,1.03,1.37,1.97,2.8,2.82,4.34.18.34.36.65.52.99.2.38.38.76.56,1.16.22.47.43.96.63,1.46.07.11.11.25.18.38.18.47.36.96.54,1.48.02.04.02.09.04.13.2.58.38,1.19.56,1.79.18.63.34,1.25.49,1.88v.02c2.69,11.6-7.28,18.94-19.93,18.11Zm239.67-141.55c11.03.23,41.99,32.31,41.33,43.57-.63,11.1-7.57,17.21-18.4,17.74-10.8.56-42.18-32.11-41.26-43.18.86-10.7,7.43-16.95,18.33-18.14Zm-96.33-74.59c20.81-.3,51.47,17.31,50.31,29.4-1.02,10.7-8.06,16.91-18.9,17.71-19.03,1.35-50.87-16.12-51.6-28.81,1.12-11.5,7.8-18.1,20.18-18.3Zm-69.9,116.74c2.18-10.93,10.27-18.37,20.48-14.57,17.48,6.54,34.78,15.2,40.24,34.22-2.28,12.98-8.69,19.16-19.82,18.96-13.74-.23-43.01-27.95-40.9-38.62Zm180.09,273.85c-11.29-6.05-16.46-13.84-21.56-19.73-19.68-22.77-35.8-14.2-79.24-38.45-25.73-14.38-46.69-32.24-55.24-39.59-11.26-9.7-17.6-16.59-31.48-26.8-16.17-11.87-30.34-20.15-39.36-25.1,13.21-2.08,32.31-4.75,55.46-6.74,45.66-3.96,68.65-6.38,86.05-.2,33.23,11.8,55.22,36.52,66.57,52.37-4.32-9.87-8.53-17.73-12.25-23.31-4.84-7.25-15.85-20.94-18-23.73-6.49-8.42-12.61-14.33-16.99-18.18-3.67-3.2-6.74-5.51-25.37-18.76-5.33-3.78-9.83-6.99-13.17-9.34,9.29-5.28,18.58-10.57,27.88-15.83,4.25,2.42,10.43,6.07,17.64,10.93,21.32,14.29,31.95,21.43,38.92,32.4,6.18,9.74,2.75,11.33,11.85,54.12,4.08,19.19,4.84,19.17,7.21,31.62,1.1,5.75,2.26,12.63,3.25,20.56.63,2.17,1.19,4.48,1.66,6.9,3.99,20.22-1.12,30.88,6.07,43.95,5.73,10.43,15.94,16.3,25.1,19.77-9.18.6-22.26-.02-34.98-6.85Zm92.51-178.97c-7.43,5.19-15.72,4.46-20.58-2.05-10.9-14.6-17.38-31.68-17.54-49.98-.07-8.09,7.2-12.92,17.57-13.58,20.22,1.82,19.26,21.54,25.7,35.25,5.15,11,6.87,22-5.15,30.36Z" />
        <path class="d"
            d="m353.08,795.41c-2.47-3.95-4.95-8.25-7.25-12.76-.82-1.56-1.61-3.13-2.43-4.77-.52-1.13-1.43-2.91-2.47-5.38-.13-.22-.22-.43-.3-.65-.82-1.74-1.69-3.82-2.6-6.21-.39-1-.74-1.87-1-2.56-.17-.39-.3-.74-.48-1.13-.04-.17-.13-.39-.22-.56,0,0,0,0,0,0-7.01.69-17.87,1.97-30.77,4.12-8.11,1.34-14.98,2.71-20.15,3.78,11.21-6.8,26.68-15,46.01-21.91v-.02c-2.65-8.25-5.21-17.97-7.42-28.82-1.3-6.51-2.56-12.85-3.52-19.4v-.04s0,0-.01,0c-10.17.81-18.94,2.02-26.87,3.6-23.76,4.75-42.5,12.02-54.61,17.42,31.28-19.92,59.48-30.74,80.02-36.83-.22-7.34.09-15.06,1.48-23.35,0-.22,0-.52.09-.74,1.26-7.34,2.91-13.41,4.77-18.36,0,0,0,0,0-.01-.02,0-.03,0-.04,0-10.88,2.62-23.49,6.43-37.19,12.11,9.37-8.18,24.82-20.05,46.34-29.76,0,0,0,0,0-.01,0-.04.04-.04.04-.09,5.47-7.51,11.46-12.72,15.71-16.02,5.34-2.34,10.59-4.64,15.93-6.99-6.21-6.29-12.94-12.63-20.1-19.01-5.6-4.99-10.98-9.51-16.41-13.93-1.35.09-2.69.22-3.95.3l-2.91.22c-.3,0-.61,0-.87.04-.48,0-.91.04-1.39.09h-.17c-.56.04-1.13.04-1.65.09-.18,0-.36,0-.54,0-.72.03-1.43.05-2.13.07-.49.02-.91,0-1.39,0,0,0-.02,0-.03,0-.65.04-1.3.04-1.91.04h-2.26c-.42,0-.83-.04-1.25-.08-.22,0-.43-.02-.64-.03-.33,0-.65,0-.98-.03-.48-.04-.95-.09-1.35-.09-.29-.03-.53-.05-.78-.08-.18-.02-.36-.03-.53-.05-1.14-.11-2.22-.27-3.22-.43-1.01-.18-1.95-.38-2.84-.6-.43-.11-.87-.25-1.28-.38-.25-.08-.46-.18-.7-.27-.11-.04-.21-.07-.32-.11-.21-.08-.39-.16-.58-.24-.12-.05-.27-.1-.39-.15-.07-.02-.13-.07-.18-.09-.54-.24-1.04-.5-1.5-.81-.01,0-.03-.01-.04-.02,0,0,0,0-.01,0-.2-.11-.37-.22-.53-.33-.11-.07-.21-.15-.31-.22-.08-.03-.18-.11-.28-.18v-.03s-.01,0-.02-.01h-.03s-.09-.04-.13-.04l-.26-.26c-.09-.09-.17-.17-.3-.26l-.09-.09c-.48-.43-.87-.91-1.26-1.39v-.04c-.05-.07-.1-.14-.15-.22-.14-.19-.29-.38-.41-.57,0,0,0-.04-.04-.04t-.04-.04v-.04c-.09-.13-.13-.26-.22-.39v-.03c-.18-.31-.33-.65-.49-1-.05-.13-.11-.27-.16-.4-.09-.25-.18-.52-.27-.76-.02-.07-.04-.13-.07-.2-.05-.2-.09-.38-.16-.58-.07-.27-.13-.54-.18-.83-.06-.24-.1-.5-.14-.76,0-.03-.02-.05-.02-.08v-.02c-.45-2.78-1.07-6.78-.72-10.9,0-.04.01-.08.01-.12.12-1.35.36-2.7.74-4.04,0-.01,0-.02,0-.03,0-.01,0-.03.01-.04.13-.43.25-.86.41-1.29.04-.11.07-.21.1-.32.07-.18.19-.32.27-.5.35-.8.76-1.58,1.25-2.34.07-.11.11-.23.18-.33.16-.23.34-.43.51-.64.22-.28.37-.59.61-.86-.02.05-.03.1-.04.15,0,0,0,0,0,0l.03-.03s0-.03.01-.05v-.14c-.43-.78-.95-1.52-1.48-2.26-.95-1.48-2-2.87-3.17-4.17v-.09c-.78-.95-1.69-1.95-2.65-2.91l-.87-.87c-.56-.56-1.26-1.17-1.91-1.74-1.3-1.17-2.56-2.26-3.95-3.3-.52-.35-1.04-.74-1.48-1.04-.95-.65-1.91-1.3-2.86-1.82-.13.22-.3.39-.48.56-.39.48-.78.87-1.22,1.26-.02.02-.04.03-.07.05-.21.19-.45.36-.67.54-.19.15-.38.32-.57.45-.22.22-.52.39-.78.52-.02.02-.06.03-.08.05-.25.15-.5.29-.76.43-.26.14-.51.28-.77.44-.31.13-.63.26-.95.38-.21.09-.42.18-.63.26-.01,0-.02,0-.03.01-.37.14-.78.25-1.17.37-2.43.76-5.12,1.23-8,1.54-.96.11-1.94.23-2.94.3-1.17.09-2.34.17-3.56.26h-.13c-1.43.13-2.69.22-4.17.22-.83,0-1.69-.09-2.47-.09-.17-.04-.35-.09-.52-.04-.17-.04-.35-.04-.52-.04-.26-.04-.48-.04-.69-.04-.09,0-.17,0-.22-.04-.01,0-.03,0-.04-.01-.05,0-.1,0-.15-.02-2.87-.22-5.48-.65-7.97-1.14-.55-.1-1.11-.19-1.65-.31-1-.22-1.91-.43-2.87-.61-.85-.19-1.7-.42-2.55-.61-.79-.18-1.57-.37-2.36-.56-.72-.18-1.44-.32-2.16-.52-.74-.22-1.43-.43-2.17-.65-.07-.02-.14-.05-.21-.07-1.83-.56-3.63-1.2-5.39-1.96-.29-.12-.57-.23-.88-.36-.31-.13-.59-.31-.9-.46-.4-.19-.79-.39-1.18-.6-.39-.21-.8-.38-1.18-.6-.35-.2-.69-.48-1.03-.7-.38-.24-.75-.5-1.12-.76-.31-.22-.62-.39-.92-.62-.39-.3-.75-.61-1.12-.92-.27-.23-.54-.47-.81-.71-.44-.39-.88-.78-1.33-1.23-.39-.35-.69-.69-1.04-1.09-.38-.44-.66-.84-.97-1.26-.31-.4-.63-.8-.89-1.18-.15-.22-.29-.44-.44-.65-.08-.14-.16-.28-.24-.42-.1-.16-.23-.34-.32-.49h-.01s-.04-.04-.04-.09c0,0,0,0,0,0-.04-.06-.09-.12-.11-.18-.12-.22-.15-.35-.26-.56-.03-.04-.07-.07-.07-.12-.04-.09-.09-.13-.13-.22-.13-.22-.22-.43-.39-.65-.09-.22-.13-.43-.17-.65-.02-.02,0-.02,0-.04-.03-.09-.11-.23-.14-.31,0-.02-.02-.05-.02-.07,0,0,0,0,0,0,0,0,0,0,0,0h0s0-.04-.01-.06c-.04-.1-.1-.29-.15-.44-.02-.06-.04-.13-.07-.2-.04-.13-.08-.26-.13-.41-.05-.18-.11-.36-.16-.57-.32-1.15-.66-2.71-.76-4.56-.02-.27,0-.56-.01-.84,0-.52,0-1.04.05-1.59.02-.2,0-.38.02-.58t0-.04c.03-.24.11-.5.15-.74.05-.31.11-.62.18-.93.03-.11.03-.21.06-.32.04-.16.12-.31.16-.47.18-.64.4-1.28.67-1.93.08-.24.16-.49.3-.72.17-.39.39-.78.61-1.17,0,0,.02-.01.02-.02.1-.17.23-.3.33-.47.23-.34.45-.69.69-.99.03-.04.07-.08.1-.12.27-.35.54-.68.82-.99.13-.15.24-.32.38-.45.19-.19.38-.34.57-.51.19-.18.38-.36.58-.52.05-.04.1-.1.15-.14.23-.19.48-.36.72-.54.86-.63,1.72-1.18,2.54-1.6.11-.06.23-.11.34-.17.05-.02.11-.04.16-.06,1.45-.68,2.73-1.09,3.53-1.3.15-.04.28-.08.4-.12.13-.04.17-.04.22-.09-.78-.3-1.61-.65-2.39-1.04-.83-.35-1.65-.74-2.43-1.09h-.09c-1.61-.65-3.21-1.39-4.91-2.13-1.61-.74-3.21-1.48-4.9-2.21-3.3-1.39-6.55-2.86-9.85-4.3h-.09c-2.04-.91-4.17-1.78-6.16-2.69-.74-.26-1.48-.56-2.21-.87-3.86-1.61-7.64-3.08-11.5-4.51-.52-.26-1.04-.48-1.61-.61-.3-.13-.61-.22-.96-.35-1.09-.39-2.21-.82-3.26-1.17-1.17-.39-2.34-.82-3.52-1.17-.22-.09-.52-.13-.78-.26-1.26-.39-2.52-.82-3.73-1.17-.3-.09-.52-.13-.78-.22-1.26-.39-2.47-.74-3.73-1.09l-.35-.09-1.04-.3-3.21-.78c-1.74-.48-3.47-.91-5.25-1.26-1.39-.22-2.6-.52-3.99-.74-1.35-.3-2.6-.52-3.95-.65-1.52-.3-3.04-.43-4.51-.65-3.08-.39-6.03-.61-9.2-.82-1,0-2.04-.09-3.04-.09h-.17c-.43,0-.91-.04-1.35-.04v.04c-.09.09-.17.22-.26.35-1,1.39-1.95,2.65-2.95,3.82-.94,1.1-1.91,2.07-2.89,2.98-.21.2-.42.4-.64.59-.16.14-.31.3-.47.43-.26.22-.52.43-.78.61-.04.04-.09.09-.13.09-.17.13-.39.3-.52.43-.35.3-.74.56-1.09.78,0,0,0,0,0,0,0,0,0,0-.01,0,0,0-.02,0-.03.01-1.09.71-2.14,1.29-3.27,1.72-.04.02-.07.04-.11.06,0,0,0,0,0,0v.02c-.17.09-.35.13-.52.17-.04.04-.09.04-.13.04-.22.09-.43.17-.65.22l-1.3.39c-.17.04-.3.09-.48.09-.17.04-.3.09-.48.13-.43.09-.91.13-1.39.17-.37.03-.75-.03-1.11-.03-.57.01-1.14,0-1.71-.05-.12-.01-.22,0-.34,0-.52-.04-1.04-.13-1.61-.22-.15-.03-.29-.06-.43-.1-.11-.02-.23-.02-.34-.05-.12-.03-.24-.07-.35-.1-.02,0-.03,0-.05,0-.17-.04-.3-.09-.48-.13s-.35-.09-.48-.13l-.03-.03c-.39-.13-.79-.35-1.18-.5-.85-.32-1.7-.63-2.56-1.07h-.04c-.08-.08-.17-.13-.3-.21-.3-.17-.6-.34-.91-.52-.63-.38-1.28-.78-1.93-1.21l-3.12-2.49-1.78-1.39c-.26-.3-.54-.57-.83-.83-.04-.04-.09-.08-.13-.12h-.04c-29.17,20.4-45.97,42.58-55.08,56.69-5.03,7.86-14.15,21.31-19.1,41.02-.09.26-.13.48-.13.61,0,.19-.02.37-.03.56.48,18.77.95,37.53,1.43,56.3,1.77,3.95,3.55,7.91,5.32,11.86,18.21,32.88,39.18,51.28,53.7,61.5,33.77,23.74,90.98,44.02,124.28,47.66,13.2,1.39,24.26,4.38,34.34,9.64,8.64,4.56,16.02,11.68,22.31,17.36,9.2,8.29,11.03,11.29,17.23,17.23,14.93,14.24,30.6,21.92,38.11,25.13,5.86,2.43,11.42,4.25,16.71,5.6,1.39.35,2.73.65,4.04.96.74.13,1.43.26,2.17.43,3.3.65,6.42,1.17,9.59,1.61,3.6.43,7.16.87,10.81,1.3,1.69.17,3.47.35,5.34.52,1.61.13,3.17.26,4.69.39h.26c1.35.09,2.65.17,3.91.22,1.52.04,3.04.09,4.6.13,1,.04,2.08.04,3.13.04-1.43-2-2.95-4.17-4.51-6.55-1.43-2.17-2.95-4.43-4.38-6.86Zm-259.55-237.26c-8.57-2.68-17.1-5.47-25.61-8.29-2.44-.81-4.54-1.86-6.36-3.09-.04-.03-.09-.05-.13-.08-.43-.26-.82-.56-1.22-.87-.07-.03-.1-.07-.13-.1-.19-.16-.35-.33-.54-.49-.27-.24-.56-.48-.8-.75-.04-.04-.06-.08-.1-.11-.38-.38-.73-.78-1.06-1.18-.1-.12-.22-.23-.32-.35-.23-.23-.4-.52-.57-.8-.16-.24-.3-.48-.44-.72-.31-.5-.59-1.02-.83-1.55-.09-.21-.17-.42-.26-.63-.11-.27-.23-.53-.33-.8-.1-.3-.16-.59-.24-.88-.05-.2-.11-.39-.16-.59-.03-.15-.09-.29-.12-.44-.13-.65-.26-1.3-.3-1.95q-.04-.09-.04-.17v-.26s0-.04,0-.04c0-.01,0-.03,0-.04-.24-2.04-.5-7.53,2.95-13.07h0v-.04c.04-.13.13-.22.17-.35,2.34-4.08,5.64-6.6,9.85-7.86h.04s.1-.04.14-.05c.59-.22,1.1-.38,1.4-.47.25-.06.52-.08.78-.13.25-.06.51-.13.77-.18.33-.05.69-.09,1.04-.14,1.55-.2,3.2-.27,4.92-.24.35,0,.71.01,1.07.03,1.54.07,3.12.19,4.78.41,5,1.62,10.21,3.27,15.51,4.94,2.02.63,4.01,1.25,6.06,1.89,1.74.56,3.47,1.13,5.17,1.65l5.56,1.82c.81.26,1.64.55,2.46.82,2.7.89,5.38,1.78,8.1,2.7,1.65.56,3.29,1.08,4.94,1.65.52.17,1.09.39,1.65.56,1.69.69,3.56,1.26,5.38,1.91.26.13.48.22.74.35.87.35,1.69.74,2.47,1.17.01,0,.02.01.03.02.18.1.34.2.52.3.12.07.25.11.37.21.35.17.69.43,1.04.65.21.13.37.31.57.45.43.31.84.64,1.24.98.07.07.16.11.23.18.03.03.07.08.1.13.05.04.09.08.13.13.15.13.32.25.46.39.13.13.24.26.36.39.33.34.66.68.95,1.04.01.01.02.03.03.04.39.48.78,1,1.13,1.56.06.09.1.19.16.29.18.29.34.58.5.89.04.07.09.14.12.22.26.48.48.96.65,1.43.05.14.07.29.12.43.18.51.31,1.04.44,1.57.09.38.25.73.31,1.12.09.43.13.87.17,1.3.04.56.09,1.13.09,1.74,0,.46-.07.94-.1,1.41-.02.24-.03.48-.05.72-.11,1.03-.29,2.08-.57,3.18-.04.16-.04.3-.08.46,0,.01-.01.03-.01.04h0c-.09.35-.17.7-.3,1.18-.04.17-.13.39-.22.56-.2.61-.43,1.15-.68,1.7-.16.39-.32.78-.5,1.16-.1.22-.19.45-.3.66-.22.43-.43.82-.65,1.26-.17.29-.37.53-.55.8-.16.25-.33.48-.49.72-.26.37-.5.78-.78,1.13-.17.17-.39.39-.56.61-.17.18-.35.32-.52.49-.23.23-.46.45-.7.67-.17.16-.34.35-.52.49-.49.42-1,.77-1.53,1.11-.27.18-.54.35-.81.51-.42.24-.84.49-1.26.68,0,0,0,.04-.04.04-.32.15-.69.26-1.03.39-.29.11-.56.23-.86.32-.07.02-.12.05-.19.07-.39.13-.78.26-1.22.35-.4.09-.85.12-1.27.19-.32.05-.63.11-.95.14-.13.01-.24.05-.38.06-.64.05-1.31.05-1.97.04-.2,0-.43-.04-.63-.04-.39-.02-.77-.04-1.16-.08-.03,0-.06,0-.1,0-.39-.09-.82-.09-1.17-.13h-.26c-.22-.04-.43-.04-.65-.13-.3-.09-.65-.13-.95-.22-.08-.02-.18-.05-.27-.08-.1-.02-.19-.02-.29-.05-2.3-.58-4.59-1.24-6.88-1.85-.11-.02-.22-.05-.33-.05-.13,0-.22-.04-.35-.09-.35-.09-.69-.17-1.04-.26-.39-.09-.74-.22-1.09-.35-.65-.17-1.35-.35-2-.52-.39-.12-.77-.22-1.15-.33-.34-.1-.68-.18-1.02-.28-.17-.04-.35-.09-.52-.13-2.47-.69-4.95-1.43-7.38-2.17-.79-.25-1.57-.49-2.35-.74-1.69-.51-3.39-1-5.08-1.52-.73-.21-1.42-.45-2.12-.65-.08-.03-.13-.06-.18-.08Zm59.93,83.45c0,.36,0,.73-.03,1.08-.02.32-.07.63-.11.94-.06.45-.12.9-.21,1.33-.05.25-.11.49-.18.74-.12.46-.25.9-.4,1.34-.05.13-.07.28-.12.41-.03.1-.09.17-.13.27-.24.59-.5,1.15-.8,1.69-.12.22-.19.48-.32.68-.16.25-.36.44-.53.67-.3.42-.61.82-.95,1.21-.11.12-.19.27-.3.38-.07.07-.16.13-.23.21-.34.34-.7.66-1.07.96-.15.13-.27.27-.44.39-.26.22-.61.43-.91.61-.06.04-.14.07-.2.11-.46.28-.94.54-1.44.77-.11.05-.2.12-.32.17-.03,0-.05,0-.08.02-.07.03-.14.07-.21.1,0,0,0,.02-.02.02,0,0-.04.04-.04.09-.09,0-.17.04-.26.04-.17.04-.35.13-.56.17-.05,0-.09.02-.13.03-.49.16-.99.29-1.5.4-.22.05-.42.11-.67.14t-.09.04c-.26.04-.52.09-.78.13-.48.04-.91.04-1.39.04h-.43c-.69,0-1.35-.09-2.04-.17h-.04c-.78-.09-1.56-.26-2.34-.48-1-.26-1.95-.52-2.99-.78-.37-.1-.72-.19-1.09-.29-4.42-1.14-8.99-2.33-13.31-3.92-.34-.12-.68-.22-1.02-.35-.65-.26-1.26-.52-1.91-.78-.26-.13-.52-.22-.74-.35-.69-.3-1.35-.61-2.04-1-.03-.01-.05-.03-.08-.04-.55-.28-1.08-.58-1.62-.89-.3-.17-.61-.32-.91-.5-.2-.12-.38-.25-.57-.37-.11-.07-.23-.15-.34-.22-.36-.24-.73-.47-1.08-.71-.29-.22-.56-.46-.84-.68-.25-.19-.49-.39-.73-.59-.14-.12-.29-.22-.42-.34-.2-.18-.39-.37-.58-.55-.41-.38-.83-.76-1.22-1.16-.02-.02-.05-.04-.07-.07-.35-.35-.69-.74-1-1.09-.08-.1-.15-.21-.24-.32-.37-.45-.72-.93-1.07-1.42-.13-.18-.27-.34-.39-.52-.08-.12-.14-.25-.22-.37-.3-.47-.59-.95-.87-1.45-.12-.22-.27-.42-.39-.65-.04-.13-.09-.22-.09-.26-.09-.13-.17-.3-.26-.48-.04-.09-.07-.18-.11-.27-.2-.43-.38-.88-.55-1.33-.09-.24-.21-.46-.29-.7-.1-.27-.17-.56-.26-.83-.15-.46-.3-.91-.43-1.39-.03-.1-.07-.19-.09-.3-.04-.17-.09-.39-.13-.61-.08-.24-.1-.47-.14-.7-.11-.51-.25-.98-.34-1.52-.06-.38-.08-.74-.12-1.11,0,0,0-.01,0-.02,0,0,0,0,0,0-.08-.68-.12-1.33-.12-1.96,0-.04-.01-.08-.01-.12,0-.08.01-.17.01-.25.04-2.03.44-3.83,1.15-5.43,0,0,0,0,0,0,0,0,0,0,0-.01.13-.29.25-.58.4-.86.05-.09.07-.17.12-.26.17-.39.43-.74.74-1.13.13-.17.26-.35.43-.52.03-.03.05-.06.08-.08.46-.57.97-1.11,1.53-1.61.07-.07.14-.15.22-.22.02-.02.05-.03.07-.05.64-.55,1.33-1.05,2.07-1.51.18-.11.36-.22.55-.33,1.98-1.17,4.25-2.09,6.74-2.78.06-.02.11-.04.17-.06.04-.01.1-.02.16-.03.99-.27,2.01-.51,3.05-.71.06-.01.1-.03.18-.04.06-.01.12-.02.18-.03.79-.15,1.6-.28,2.41-.4.88.47,1.79.91,2.71,1.34,1.26.59,2.56,1.14,3.87,1.67.45.18.9.37,1.35.55.52.21,1.04.41,1.56.62,5.76,2.26,11.63,4.44,16.55,7.71.18.12.37.22.54.34.35.22.64.46.95.69.18.13.36.26.53.4.26.19.53.39.78.6.43.39.91.78,1.3,1.17h.04c.35.35.7.69,1,1.04.2.22.38.46.57.69.25.29.5.58.74.89.21.26.44.5.64.77.21.3.4.64.6.95.14.22.28.44.42.67.12.2.25.38.37.59.17.26.35.61.48.91.22.35.39.74.56,1.13.13.26.26.56.35.82.09.17.13.35.17.52.1.27.16.57.25.85.18.52.34,1.06.49,1.62.01.05.03.09.04.14.17.56.3,1.13.39,1.74.09.3.17.56.22.87.11.65.15,1.29.2,1.93,0,.1.03.21.03.31.02.43,0,.85,0,1.27Zm85.19,1.58c-.13-.02-.25-.02-.37-.04-.13-.01-.27-.02-.4-.03-1.66-.16-3.4-.23-5.17-.3-2.09-.07-4.22-.13-6.31-.24h-.49c-.43,0-.91-.04-1.35-.09-.43-.04-.87-.09-1.35-.13-.22,0-.43,0-.65-.04-.13,0-.22,0-.3-.04-.26-.04-.52-.04-.78-.09h-.17c-.82-.13-1.74-.26-2.56-.39-.78-.17-1.52-.35-2.21-.56-.48-.17-.91-.3-1.39-.48-.13-.04-.3-.13-.48-.22l-.39-.13s-.09-.05-.13-.07c-.34-.15-.66-.32-.99-.49-.03-.02-.06-.03-.1-.05-.09-.04-.22-.13-.35-.17-.05-.03-.1-.07-.15-.1-2.16-1.2-3.97-2.91-5.32-5.29-.03-.05-.06-.08-.09-.12-.03-.05-.04-.1-.07-.15-.23-.43-.44-.87-.64-1.34-.03-.08-.08-.15-.11-.24-.24-.52-.43-1.09-.6-1.68-.07-.24-.12-.51-.18-.76-.14-.58-.29-1.16-.39-1.77-.02-.11-.02-.22-.04-.33-.09-.55-.15-1.13-.21-1.72,0-.03,0-.05,0-.08-.09-.43-.09-.91-.13-1.39-.04-.26-.04-.48-.04-.74-.04-.22-.04-.43-.04-.69,0-.69,0-1.39.09-2.04,0-.09.02-.16.03-.24.03-.42.07-.82.12-1.22.02-.18.02-.36.07-.53.04-.34.09-.67.17-.97,0-.01,0-.02,0-.03,0-.13,0-.3.04-.43.09-.35.17-.65.26-.96.09-.39.24-.7.37-1.05.06-.17.12-.36.18-.53.07-.17.11-.38.19-.55.04-.13.09-.22.17-.3.09-.19.2-.36.3-.54.2-.37.41-.73.63-1.08.08-.13.16-.27.24-.38.04-.08.11-.14.16-.22,1.07-1.49,2.38-2.69,3.89-3.65.04-.02.07-.06.11-.08.35-.22.65-.39,1-.56.02-.01.05-.02.07-.04.16-.08.32-.16.48-.24.19-.09.37-.2.57-.28.26-.13.56-.22.82-.35.04-.04.13-.04.17-.04.02,0,.05-.01.07-.02.85-.31,1.75-.56,2.66-.77.04-.01.09-.03.13-.04.09-.04.22-.04.35-.09.22-.09.43-.13.65-.17.65-.09,1.26-.22,1.91-.22.17-.04.39-.09.65-.09.35-.04.61-.13.91-.13h.65c.21,0,.44,0,.66,0,.98-.03,1.97-.04,2.97,0h.71c.3.04.61.04.87.09h.17c.35,0,.69.04,1.09.09.56.04,1.17.13,1.69.17.09.04.17.04.26.04,1.95.26,4.03.39,6.2.52,2.02.11,4.07.2,6.11.33.35.02.71.04,1.06.06.08.02.18.02.27.03.32.03.64.06.96.09.05,0,.11,0,.16.01.1,0,.2.03.3.04,1.04.1,2.06.24,3.06.4.22.03.46.05.67.09.21.04.41.08.62.12.12.02.25.05.37.07.1.02.21.04.31.06.61.13,1.17.26,1.74.43.03,0,.05.02.08.02.28.08.55.17.82.26.25.08.51.14.75.24.26.08.48.19.7.29.33.13.66.28.98.43.08.04.16.07.23.11.26.09.48.22.7.35.12.05.22.14.33.2.27.16.55.32.81.49.37.21.7.45,1.03.74.07.05.13.12.2.18.42.34.8.73,1.18,1.13.19.2.39.39.57.6.03.04.06.09.09.13.3.37.57.77.84,1.18.08.12.17.22.25.35.08.13.15.3.23.44.26.45.5.93.71,1.43.16.36.31.72.44,1.12.02.06.04.14.06.21.17.51.32,1.04.46,1.59.04.16.1.29.13.46.04.35.13.69.17,1.04,0,.03,0,.07.01.11.09.51.17,1.03.22,1.58.05.26.07.54.11.83v.39c.04.65.09,1.35.09,2.04v1.39c0,.09,0,.17-.04.26,0,.09,0,.17-.04.26,0,.09-.02.18-.03.27-.04.5-.11.98-.18,1.45-.04.31-.08.63-.14.93-.02.11-.06.21-.08.32-.06.29-.14.57-.21.85-.05.19-.08.38-.14.57-.05.16-.12.28-.17.44-.18.53-.38,1.04-.6,1.52-.05.11-.08.24-.13.34-.09.22-.13.35-.22.52-.04,0-.04.09-.09.09-.02.04-.04.06-.06.09-1.13,2.02-2.66,3.63-4.51,4.87-.26.19-.52.39-.81.55-.19.12-.42.2-.62.31-.13.07-.27.13-.4.2-.18.09-.34.19-.54.27l-.26.13c-.17.08-.35.12-.52.19-.3.12-.62.24-.93.35l-.03.03c-.35.17-.69.26-1.04.39-.14.03-.29.05-.44.07-3.72,1.01-8.01,1.19-12.49.79-.22-.02-.41-.03-.62-.03-.3-.04-.65-.09-.96-.13-.1-.02-.21-.03-.32-.04Z" />
        <path class="f"
            d="m456.35,579.89c-31.51,1.52-58.04,8.07-77.61,14.63-4.21,1.91-8.38,3.73-12.59,5.56-5.34,2.34-10.59,4.64-15.93,6.99-4.25,3.3-10.24,8.51-15.71,16.02.82-.35,1.69-.69,2.56-1.04,2.52-1.13,5.17-2.17,7.86-3.21,0,0,0,0,0,0h0c.7-.27,1.47-.51,2.19-.77,2.45-.89,4.9-1.78,7.45-2.62,33.16-10.59,61.68-9.51,77.74-7.73,0,0,0,.01.01.02,0,0,0,0,0,0,.02.03.05.09.07.12.35.55.74,1.2,1.15,1.92.17.29.32.59.49.92.34.64.67,1.33,1.01,2.08.15.33.29.62.44.97.41.98.81,2.03,1.17,3.17.04.11.06.22.09.33.07.24.14.49.21.73.09.31.18.61.26.93.17.69.35,1.43.48,2.17.04.2.07.39.1.59.04.23.11.42.15.66.3,1.91.41,3.69.44,5.38.02,1.04,0,2.02-.06,2.96-.03.42-.05.8-.09,1.2-.08.92-.19,1.79-.31,2.58-.02.12-.03.25-.05.36-.12.74-.26,1.42-.39,2.03-.04.22-.09.43-.13.61h-.02s0,.03,0,.04c-2.71-.26-5.57-.52-8.57-.78-.02,0-.03,0-.04,0-.38-.03-.8-.06-1.19-.09-2-.17-4.08-.33-6.19-.49-1.9-.14-3.86-.28-5.85-.41-.83-.06-1.67-.11-2.52-.17-1.96-.12-4.01-.25-6.05-.37-2.94-.17-5.9-.33-9-.46-2.67-.12-4.96-.21-7.09-.29-.25-.01-.51-.02-.75-.02-1.56-.05-3.02-.09-4.49-.13-.61-.01-1.22-.02-1.83-.03-.98-.01-2-.02-3.03-.01-.48,0-.95,0-1.44,0-1.73.02-3.41.06-5.08.11-2.51.09-4.99.2-7.39.35-1.02.06-1.98.13-2.96.19-.49.04-.99.07-1.47.1-1.16.09-2.3.19-3.43.31-1.74.13-3.43.3-5.08.52-.94.09-1.81.21-2.69.31-.92.12-1.78.24-2.65.36-.36.05-.73.1-1.08.16-.61.09-1.22.17-1.82.26-.61.09-1.17.17-1.74.26-1.65.3-3.17.56-4.6.78l-.78.13c-.57.1-1.16.21-1.75.32-.81.15-1.59.29-2.44.46-2.43.48-5.03,1.05-7.68,1.66-.43.1-.85.18-1.28.29-1.87,4.95-3.52,11.03-4.77,18.36-.09.22-.09.52-.09.74-1.39,8.29-1.69,16.02-1.48,23.35,0,0,0,0,.01,0,.17-.05.33-.09.5-.14,1.37-.41,2.69-.81,4-1.15.6-.16,1.16-.3,1.75-.46.85-.23,1.72-.47,2.55-.68,2.33-.6,4.64-1.19,6.9-1.7,4.43-1.04,8.7-1.92,12.88-2.72.71-.14,1.44-.29,2.15-.43.9-.16,1.76-.29,2.65-.45,4.9-.86,9.62-1.58,14.17-2.19,1.29-.18,2.59-.35,3.85-.53,4.05-.53,7.94-.94,11.69-1.34,2.29-.25,4.55-.49,6.74-.72,19.49-2.06,34.63-2.58,45.94-2.54,6.31.02,11.45.21,15.42.43.61.04,1.22.09,1.82.09.92.07,1.78.12,2.6.18,2.72.18,5.08.37,6.9.52,0,.01.01.02.02.04,0,0,.02,0,.02,0,.91,1.56,1.87,3.3,2.82,5.3.24.5.48,1.05.72,1.57.13.27.25.54.38.82.42.94.82,1.92,1.22,2.93.79,1.98,1.55,4.05,2.23,6.31.11.38.18.73.29,1.1l.46,1.54c.14.56.24,1.09.37,1.64.15.64.29,1.26.42,1.87.21.97.38,1.91.54,2.84.13.74.24,1.46.34,2.17.04.31.11.65.15.95.04.39.09.78.13,1.17,0,.06,0,.11.02.17.09.8.16,1.56.22,2.31.02.21.04.44.06.64.09.65.09,1.22.13,1.82,0,0,0,0,0,0,0,.01,0,.03,0,.05-6.56-.65-14.67-1.4-23.97-2.17-.37-.03-.7-.06-1.08-.09-7.12-.56-14.93-1.17-23.35-1.74-1.59-.11-3.23-.22-4.88-.33-.74-.05-1.45-.09-2.21-.14-.63-.04-1.27-.08-1.9-.12-1.92-.12-3.91-.24-5.92-.35-3.29-.19-6.66-.37-10.18-.54-1.17-.04-2.39-.13-3.6-.17-2.43-.13-4.95-.26-7.51-.35-1.61-.04-3.17-.13-4.73-.17-2.21-.09-4.38-.17-6.51-.22-6.99-.2-13.5-.31-19.65-.35-.63,0-1.28,0-1.9,0-2.43,0-4.77,0-7.08.03-1.44.02-2.85.04-4.24.06-.68.01-1.35.03-2.02.04-1.42.03-2.84.07-4.22.11-2.68.09-5.25.21-7.76.34-1.79.1-3.53.21-5.23.32-.4.03-.8.05-1.2.08-.83.08-1.64.16-2.44.2.95,6.55,2.21,12.89,3.52,19.4,2.21,10.85,4.77,20.58,7.42,28.82v.02s.01,0,.02,0c0,0,.01,0,.02,0h0c.89-.32,1.84-.6,2.74-.91,2.7-.93,5.41-1.86,8.26-2.73,1.17-.38,2.34-.74,3.55-1.05,1.69-.52,3.39-1,5.12-1.43.45-.11.91-.23,1.36-.35.29-.08.56-.17.85-.24,2.46-.65,4.99-1.25,7.55-1.84.77-.17,1.5-.29,2.26-.45,1.19-.26,2.4-.53,3.57-.77,1.87-.35,3.69-.69,5.51-1.04.01,0,.02,0,.03,0,1.08-.19,2.12-.34,3.19-.52,2.59-.43,5.14-.82,7.65-1.15,1.22-.16,2.42-.31,3.62-.45.7-.08,1.43-.19,2.13-.26,1.74-.17,3.47-.35,5.17-.52.45-.05.89-.07,1.33-.11.26-.02.51-.04.77-.07.15-.01.3-.03.46-.04.82-.04,1.65-.09,2.47-.17,2.34-.17,4.64-.3,6.86-.39.06,0,.12,0,.18,0,.28-.01.55-.01.83-.02,1.16-.03,2.32-.07,3.43-.1,1.18-.03,2.31-.03,3.46-.04.99-.01,2.01-.04,2.98-.04,2.21,0,4.36.03,6.46.08.52.01,1,.04,1.51.05.34.01.67.02,1,.03,3.47.11,6.79.28,9.9.52,1.87.13,3.73.3,5.47.48,0,0,0,.04.04.04.1.18.23.4.34.6.27.46.55.97.85,1.54.07.13.13.24.2.38.02.03.03.07.05.1.21.42.43.89.65,1.36.04.09.08.16.12.25.23.5.45,1.04.67,1.6.04.1.08.19.12.29,0,.02.01.04.02.05,1.11,2.86,2.09,6.38,2.48,10.47,0,.05.02.1.02.15.65,7.08-.78,12.76-1.87,15.97h-.03s0,.01,0,.01c-3.24-.72-6.36-1.34-9.43-1.92-.92-.17-1.84-.35-2.74-.51-2.6-.47-5.14-.9-7.59-1.28-.98-.15-1.9-.28-2.85-.43-2.27-.33-4.49-.64-6.61-.91-.41-.05-.83-.11-1.23-.16-2.79-.34-5.46-.63-7.98-.87-.98-.09-1.92-.16-2.88-.24-.37-.03-.75-.06-1.11-.08-2.36-.19-4.66-.37-6.92-.5-.39-.02-.8-.05-1.19-.08-2.66-.15-5.23-.25-7.76-.33-.75-.02-1.49-.04-2.23-.06-5.43-.1-10.56-.11-15.32.01-2.56.09-4.99.17-7.34.26-3.08.13-5.99.3-8.68.48-1.02.04-2.03.12-3.01.2-2.3.17-4.49.34-6.49.51-1.41.11-3.83.31-7.07.65.09.17.17.39.22.56.17.39.3.74.48,1.13.26.69.61,1.56,1,2.56.91,2.39,1.78,4.47,2.6,6.21.09.22.17.43.3.65.78,1.74,1.61,3.52,2.47,5.38.82,1.65,1.61,3.21,2.43,4.77,2.43,4.6,4.86,8.86,7.25,12.76,1.52,2.47,3,4.73,4.38,6.86,1.56,2.39,3.08,4.56,4.51,6.55h.09c.69.04,1.35.04,2.04.04,1.78,0,3.56,0,5.34-.04,1.43-.04,2.82-.09,4.21-.13,2.26-.04,4.47-.13,6.77-.22.56,0,1.3-.04,1.95-.04,1.39-.09,2.78-.17,4.25-.22,1.69-.09,3.52-.22,5.51-.35.74-.04,1.52-.09,2.3-.17.39,0,.78-.04,1.17-.09,2.95-.26,6.21-.56,9.64-.96,1.04-.09,2.04-.22,3.04-.3,1.39-.22,2.87-.35,4.38-.56,1.26-.17,2.56-.3,3.95-.52,1-.13,2-.26,3-.43,3.08-.43,6.25-.95,9.46-1.56.09,0,.22,0,.3-.04.09,0,.17-.04.3-.09.52-.04,1.04-.13,1.61-.17.78-.13,1.52-.26,2.26-.43v-.04h.13c.65-.09,1.22-.22,1.82-.35.13,0,.22-.04.3-.09.17,0,.3,0,.43-.09.56-.13,1.13-.26,1.74-.39.04,0,.09,0,.13-.04,2.91-.61,5.73-1.22,8.51-1.78.95-.17,1.87-.39,2.73-.61,3.82-.87,7.47-1.82,11.03-2.78,1.17-.3,2.34-.65,3.47-.95.3-.09.61-.17.91-.26.39-.09.78-.17,1.17-.3.74-.22,1.48-.43,2.17-.65.04,0,.09-.04.09-.04,1.43-.43,2.87-.87,4.3-1.3.09,0,.17-.04.3-.04,0,0,.04,0,.09-.04.04,0,.13,0,.17-.04.09-.04.13-.09.17-.09.17-.04.35-.09.52-.13.26-.04.52-.13.82-.26.13-.04.26-.09.39-.13.3-.09.65-.22,1-.35.17-.04.35-.13.56-.17t.09-.04c.61-.17,1.17-.3,1.78-.61.35-.13.74-.22,1.09-.35.17-.04.3-.13.43-.17,6.21-2.26,15.89-6.12,26.96-11.68.78-.43,1.61-.82,2.56-1.35.04,0,.04-.04.09-.04.69-.39,1.35-.74,2.04-1.13.13-.04.22-.13.35-.22,24.31-14.11,39.63-30.52,44.58-35.99,6.68-7.47,15.19-18.23,23.22-32.73-6.95-3.52-13.98-7.08-20.88-10.59-.09,0-.09-.04-.13-.04-16.97-8.03-44.67-24.61-62.03-56.13-2.47-3.3-6.21-8.81-7.6-16.71,0-.09-.09-.22-.09-.3-1.65-6.16-3.21-13.5-4.12-21.75-.87-8.07-1-15.28-.87-21.53.61-.04,1.26-.22,1.87-.26-9.2-.52-19.01-.61-29.52-.09Z" />
        <rect class="f" x="1721.4" y="9.39" width="133.55" height="99.16" />
        <rect class="f" x="2701.94" y="8.68" width="346.23" height="100.27" />
        <rect class="f" x="1721.4" y="160.9" width="133.55" height="538.81" />
        <path class="f"
            d="m1979.66,518.91c2.67,23.97,8.47,40.99,17.38,51.08,15.75,17.97,44.86,26.96,87.36,26.96,24.96,0,44.79-3.94,59.5-11.82,14.71-7.88,22.06-19.7,22.06-35.47,0-15.13-5.93-26.64-17.77-34.52-11.85-7.88-55.94-21.44-132.26-40.68-54.94-14.5-93.65-32.63-116.12-54.39-22.48-21.44-33.71-52.34-33.71-92.7,0-47.61,17.56-88.52,52.67-122.73,35.12-34.21,84.54-51.32,148.25-51.32,60.45,0,109.72,12.85,147.8,38.55,38.08,25.7,59.94,70.08,65.57,133.14h-126.42c-1.78-17.34-6.38-31.05-13.79-41.15-13.94-18.28-37.67-27.43-71.17-27.43-27.58,0-47.22,4.57-58.93,13.71-11.71,9.15-17.57,19.86-17.57,32.16,0,15.45,6.22,26.65,18.69,33.58,12.45,7.26,56.45,19.71,131.99,37.36,50.36,12.61,88.11,31.69,113.25,57.23,24.84,25.86,37.26,58.17,37.26,96.95,0,51.08-17.85,92.78-53.56,125.1-35.71,32.32-90.89,48.48-165.56,48.48-76.16,0-132.38-17.11-168.68-51.32-36.3-34.21-54.45-77.8-54.45-130.77h128.19Z" />
        <path class="f"
            d="m2381.76,518.91c2.67,23.97,8.47,40.99,17.38,51.08,15.75,17.97,44.87,26.96,87.36,26.96,24.95,0,44.8-3.94,59.5-11.82,14.7-7.88,22.06-19.7,22.06-35.47,0-15.13-5.93-26.64-17.77-34.52-11.85-7.88-55.94-21.44-132.25-40.68-54.94-14.5-93.65-32.63-116.12-54.39-22.48-21.44-33.71-52.34-33.71-92.7,0-47.61,17.56-88.52,52.67-122.73,35.12-34.21,84.54-51.32,148.25-51.32,60.46,0,109.72,12.85,147.8,38.55,38.08,25.7,59.94,70.08,65.58,133.14h-126.42c-1.78-17.34-6.38-31.05-13.79-41.15-13.94-18.28-37.67-27.43-71.17-27.43-27.58,0-47.22,4.57-58.93,13.71-11.72,9.15-17.57,19.86-17.57,32.16,0,15.45,6.23,26.65,18.69,33.58,12.45,7.26,56.44,19.71,131.99,37.36,50.36,12.61,88.11,31.69,113.25,57.23,24.84,25.86,37.26,58.17,37.26,96.95,0,51.08-17.86,92.78-53.57,125.1-35.71,32.32-90.89,48.48-165.55,48.48-76.16,0-132.38-17.11-168.68-51.32-36.3-34.21-54.45-77.8-54.45-130.77h128.2Z" />
        <path class="f"
            d="m3490.52,620.14c-41.69,55.06-105,82.58-189.9,82.58-84.91,0-148.21-27.53-189.9-82.58-41.7-55.06-62.55-121.34-62.55-198.84,0-76.21,20.85-142.24,62.55-198.11,41.7-55.87,104.99-83.8,189.9-83.8,84.9,0,148.21,27.94,189.9,83.8,41.7,55.87,62.55,121.9,62.55,198.11,0,77.51-20.85,143.79-62.55,198.84Zm-103.33-76.36c20.24-28.72,30.37-69.55,30.37-122.48,0-52.93-10.13-93.67-30.37-122.23-20.25-28.56-49.25-42.85-87.02-42.85-37.78,0-66.85,14.29-87.25,42.85-20.4,28.56-30.59,69.3-30.59,122.23,0,52.93,10.2,93.76,30.59,122.48,20.4,28.73,49.47,43.08,87.25,43.08,37.77,0,66.77-14.35,87.02-43.08Z" />
        <path class="f"
            d="m2879.86,361.29c24.29-3.26,41.67-7.35,52.13-12.25,18.76-8.49,28.14-21.71,28.14-39.68,0-21.88-7.2-36.99-21.59-45.31-14.39-8.33-35.51-12.49-63.36-12.49-31.25,0-53.39,8.17-66.38,24.49-9.29,12.08-15.48,28.41-18.57,48.99h-125.94c2.75-46.7,15.02-85.07,36.79-115.12,34.65-47.03,94.13-70.54,178.46-70.54,54.88,0,103.63,11.59,146.26,34.78,42.62,23.19,63.93,66.95,63.93,131.28v244.93c0,16.99.3,37.56.92,61.72.92,18.29,3.51,30.7,7.78,37.23,4.27,6.54,10.68,11.93,19.23,16.17v20.58s-141.97,0-141.97,0c-3.97-10.78-6.72-20.9-8.24-30.37-1.53-9.47-2.75-20.25-3.67-32.33-18.12,20.9-39,38.7-62.65,53.4-28.25,17.31-60.19,25.96-95.81,25.96-45.45,0-82.99-13.8-112.62-41.39-29.64-27.59-44.45-66.7-44.45-117.32,0-65.64,23.84-113.16,71.51-142.55,26.15-16,64.59-27.43,115.34-34.29l44.75-5.88Zm79.81,65.15c-8.36,5.55-16.79,10.04-25.3,13.47-8.51,3.43-20.19,6.61-35.05,9.55l-29.71,5.88c-27.85,5.23-47.85,11.6-59.99,19.1-20.56,12.74-30.83,32.5-30.83,59.27,0,23.84,6.28,41.07,18.83,51.68,12.55,10.62,27.82,15.92,45.8,15.92,28.52,0,54.79-8.82,78.82-26.45,24.03-17.63,36.5-49.8,37.43-96.5v-51.92Z" />
        <path class="f"
            d="m1593.16,153.54c22.06,9.44,42.07,25.96,60.04,49.56,14.49,19.22,24.26,42.82,29.31,70.79,3.15,18.54,4.73,45.68,4.73,81.41l-.95,347.39h-138.04s0-350.93,0-350.93c0-20.9-3.15-38.09-9.45-51.58-11.98-25.62-34.04-38.43-66.18-38.43-37.19,0-62.87,16.52-77.05,49.56-7.25,17.53-10.87,38.6-10.87,63.21v328.18s-135.67,0-135.67,0v-328.18c0-32.69-3.15-56.46-9.46-71.3-11.34-26.63-33.56-39.95-66.66-39.95-38.45,0-64.29,13.32-77.53,39.95-7.25,15.17-10.87,37.76-10.87,67.76v331.72s-136.62,0-136.62,0V152.53s130.95,0,130.95,0v80.4c16.7-28.65,32.46-49.05,47.27-61.19,26.16-21.57,60.04-32.36,101.64-32.36,39.39,0,71.22,9.28,95.49,27.81,19.54,17.19,34.35,39.28,44.44,66.24,17.65-32.36,39.55-56.13,65.71-71.3,27.73-15.17,58.62-22.76,92.66-22.76,22.69,0,45.06,4.72,67.13,14.16Z" />
    </g>
</svg>