<?xml version="1.0" encoding="UTF-8" standalone="no"?>
<!-- Created with Inkscape (http://www.inkscape.org/) -->

<svg
   width="254mm"
   height="55.094299mm"
   viewBox="0 0 254 55.094299"
   version="1.1"
   id="svg1"
   inkscape:version="1.4.2 (f4327f4, 2025-05-13)"
   sodipodi:docname="Partido Novo logo (2020).svg"
   xmlns:inkscape="http://www.inkscape.org/namespaces/inkscape"
   xmlns:sodipodi="http://sodipodi.sourceforge.net/DTD/sodipodi-0.dtd"
   xmlns="http://www.w3.org/2000/svg"
   xmlns:svg="http://www.w3.org/2000/svg">
  <sodipodi:namedview
     id="namedview1"
     pagecolor="#ffffff"
     bordercolor="#000000"
     borderopacity="0.25"
     inkscape:showpageshadow="2"
     inkscape:pageopacity="0.0"
     inkscape:pagecheckerboard="0"
     inkscape:deskcolor="#d1d1d1"
     inkscape:document-units="mm"
     inkscape:zoom="0.71891835"
     inkscape:cx="524.39891"
     inkscape:cy="-41.033867"
     inkscape:window-width="1920"
     inkscape:window-height="1009"
     inkscape:window-x="-8"
     inkscape:window-y="-8"
     inkscape:window-maximized="1"
     inkscape:current-layer="layer1" />
  <defs
     id="defs1" />
  <g
     inkscape:label="Layer 1"
     inkscape:groupmode="layer"
     id="layer1"
     transform="translate(-154.25204,-159.27917)">
    <path
       d="m 355.42683,197.26051 c 0,9.25837 -7.70124,17.11296 -21.93116,17.11296 -8.76589,0 -15.06008,-2.92243 -18.51673,-8.00656 l 9.14579,-8.613 c 2.27943,2.73156 5.61411,4.21224 9.71331,4.21224 5.15918,0 7.28382,-2.23862 7.28382,-5.04709 0,-2.6565 -3.07205,-4.28632 -7.05869,-4.28632 h -5.68915 l 2.6171,-12.14281 h 5.88146 c 5.31395,0 7.85601,-2.20109 7.85601,-4.93311 0,-2.39057 -2.31225,-3.87079 -5.99402,-3.87079 -4.02415,0 -7.89352,1.97409 -10.77797,4.32573 l -5.88147,-10.01675 c 4.82149,-4.24882 10.66073,-6.71536 19.12646,-6.71536 11.30328,0 18.21187,6.7538 18.21187,14.11501 0,5.80501 -4.17423,11.49604 -10.36054,13.96306 4.24927,2.08665 6.37391,5.80547 6.37391,9.90279"
       fill="#f36f21"
       id="path38"
       style="stroke-width:0.0469015" />
    <path
       d="m 381.23675,200.94134 c -4.24927,0 -6.75383,-3.41538 -6.75383,-9.40985 0,-8.15806 4.24929,-18.82065 12.14281,-18.82065 4.2868,0 6.79135,3.41584 6.79135,9.41079 0,8.15711 -4.2868,18.81971 -12.18033,18.81971 z m 6.3364,-41.66217 c -18.13682,0 -27.92519,18.59271 -27.92519,33.65607 0,13.96306 9.06608,21.43777 20.6789,21.43777 18.13683,0 27.92518,-18.5913 27.92518,-33.65609 0,-13.96306 -9.06608,-21.43775 -20.67889,-21.43775"
       fill="#f36f21"
       id="path39"
       style="stroke-width:0.0469015" />
    <path
       d="m 235.35418,190.60893 c 0,1.71895 -1.39297,3.1091 -3.10957,3.1091 h -14.17834 c -1.71658,0 -3.10957,-1.39015 -3.10957,-3.1091 v -7.34103 c 0,-1.71519 1.39299,-3.10956 3.10957,-3.10956 h 14.17834 c 1.7166,0 3.10957,1.39437 3.10957,3.10956 z m -3.10957,-16.73352 h -14.17834 c -5.18261,0 -9.39907,4.21268 -9.39907,9.39249 v 7.34103 c 0,5.17981 4.21646,9.39298 9.39907,9.39298 h 14.17834 c 5.18262,0 9.38969,-4.21317 9.38969,-9.39298 v -7.34103 c 0,-5.17981 -4.20707,-9.39249 -9.38969,-9.39249"
       fill="#f36f21"
       id="path40"
       style="stroke-width:0.0469015" />
    <path
       d="m 302.79861,190.60893 c 0,1.71895 -1.39298,3.1091 -3.10488,3.1091 H 285.5154 c -1.71661,0 -3.11428,-1.39015 -3.11428,-3.1091 v -7.34103 c 0,-1.71519 1.39767,-3.10956 3.11428,-3.10956 h 14.17833 c 1.7119,0 3.10488,1.39437 3.10488,3.10956 z m -3.10488,-16.73352 H 285.5154 c -5.18263,0 -9.39908,4.21268 -9.39908,9.39249 v 7.34103 c 0,5.17981 4.21645,9.39298 9.39908,9.39298 h 14.17833 c 5.17793,0 9.38969,-4.21317 9.38969,-9.39298 v -7.34103 c 0,-5.17981 -4.21176,-9.39249 -9.38969,-9.39249"
       fill="#f36f21"
       id="path41"
       style="stroke-width:0.0469015" />
    <path
       d="m 195.49257,173.87165 h -32.31049 l -8.93004,0.002 c 0,4.4078 3.07205,6.30591 6.80073,6.27496 0.005,0 11.17194,-0.001 11.17194,-0.001 v 3.6433 l -13.00581,4.6e-4 c 0,4.40828 3.07207,6.30545 6.79605,6.27496 0.005,0 3.22682,-4.6e-4 6.20976,-9.4e-4 v 3.63769 l -6.41613,9.4e-4 c -0.005,0.15528 -0.009,0.16184 -0.009,0.16503 0.005,3.60298 2.93604,6.37815 6.42551,6.37815 3.60204,0 6.24259,-2.75078 6.24259,-6.39126 V 183.2715 c 0,-1.71801 1.39767,-3.12318 3.11896,-3.12318 h 13.79843 c 1.72128,0 3.12365,1.40517 3.12365,3.12318 l -0.005,16.71945 h 6.32702 l -0.009,-16.71945 c 0,-5.1465 -4.19301,-9.31606 -9.32871,-9.40001"
       fill="#f36f21"
       id="path42"
       style="stroke-width:0.0469015" />
    <path
       d="m 268.87472,173.87165 -9.01448,19.36518 v 4.7e-4 c -0.16414,0.37802 -0.53936,0.64302 -0.97554,0.64302 l -0.009,9.4e-4 c 0,0 0,0 0,0 v 9.4e-4 -9.4e-4 c 0,0 -0.009,-9.4e-4 -0.009,-9.4e-4 -0.43618,0 -0.8114,-0.265 -0.97554,-0.64302 v -4.7e-4 l -9.01448,-19.36518 h -6.93205 l 10.44966,22.40815 v 4.7e-4 c 1.15846,2.41965 3.62081,4.09685 6.48179,4.09685 2.861,0 5.32332,-1.6772 6.48181,-4.09685 v -4.7e-4 l 10.44965,-22.40815"
       fill="#f36f21"
       id="path43"
       style="stroke-width:0.0469015" />
  </g>
</svg>
