<?xml version="1.0" encoding="UTF-8" standalone="no"?>
<!-- Created with Inkscape (http://www.inkscape.org/) -->

<svg
   width="254mm"
   height="120.5017mm"
   viewBox="0 0 254 120.5017"
   version="1.1"
   id="svg1"
   inkscape:version="1.4.2 (f4327f4, 2025-05-13)"
   sodipodi:docname="PSD logo.svg"
   xmlns:inkscape="http://www.inkscape.org/namespaces/inkscape"
   xmlns:sodipodi="http://sodipodi.sourceforge.net/DTD/sodipodi-0.dtd"
   xmlns="http://www.w3.org/2000/svg"
   xmlns:svg="http://www.w3.org/2000/svg">
  <sodipodi:namedview
     id="namedview1"
     pagecolor="#ffffff"
     bordercolor="#000000"
     borderopacity="0.25"
     inkscape:showpageshadow="2"
     inkscape:pageopacity="0.0"
     inkscape:pagecheckerboard="0"
     inkscape:deskcolor="#d1d1d1"
     inkscape:document-units="mm"
     inkscape:zoom="0.71891835"
     inkscape:cx="502.14325"
     inkscape:cy="253.85358"
     inkscape:window-width="1920"
     inkscape:window-height="1009"
     inkscape:window-x="-8"
     inkscape:window-y="-8"
     inkscape:window-maximized="1"
     inkscape:current-layer="layer1" />
  <defs
     id="defs1" />
  <g
     inkscape:label="Layer 1"
     inkscape:groupmode="layer"
     id="layer1"
     transform="translate(-156.36873,-81.227099)">
    <path
       d="m 203.48167,136.93929 c 0.65198,-7.44572 -0.78269,-12.65865 -7.83168,-12.65865 -3.64756,0 -6.17406,0.12304 -8.60367,0.49361 l -2.97245,34.01165 c 2.49268,0.24601 5.48361,0.61817 8.50522,0.61817 7.04899,0 9.41252,-5.45897 10.05375,-12.78474 z m -12.62174,42.07554 c -2.0129,0 -5.88341,-0.37057 -8.49139,-0.74427 l -1.82378,20.85172 c -0.12147,1.36551 -1.35935,2.6049 -2.74636,2.6049 h -18.88188 c -1.38242,0 -2.65721,-1.23939 -2.54033,-2.6049 l 7.65639,-87.50336 c 0.18482,-2.10823 1.02871,-3.10161 4.8823,-3.97351 6.66302,-1.36397 17.13656,-3.10161 28.46352,-3.10161 20.6441,0 32.10178,11.41769 30.26724,32.39549 l -0.84575,9.68005 c -1.7284,19.73531 -13.66126,32.39549 -35.93996,32.39549"
       fill="#043f88"
       class="mkkdsak4732"
       id="path1"
       style="stroke-width:0.0264583" />
    <path
       d="m 252.26789,179.01483 c -8.93884,0 -17.37798,-1.36243 -23.02455,-2.97706 -1.47774,-0.37673 -2.28042,-1.24403 -2.15128,-2.73255 l 1.11792,-12.78167 c 0.12903,-1.49161 1.10717,-2.60646 2.87556,-2.60646 h 0.49809 c 7.34114,0.98876 17.31951,1.98522 21.4791,1.98522 4.77926,0 6.0233,-1.24403 6.2309,-3.59985 0.11856,-1.36397 -0.53819,-2.48498 -3.41991,-4.09653 l -14.6408,-8.19152 c -7.5595,-4.22108 -11.03329,-10.55041 -10.2367,-19.60921 1.10409,-12.66172 10.66882,-19.8614 29.42608,-19.8614 9.56781,0 16.98585,1.48852 22.88768,3.10315 1.47472,0.37365 2.40811,1.24095 2.27583,2.72948 l -1.14709,13.15841 c -0.13252,1.48853 -0.97187,2.48498 -2.35895,2.48498 h -0.37486 c -3.60909,-0.49977 -15.81412,-1.98829 -21.47452,-1.98829 -3.27536,0 -4.72851,0.74426 -4.89921,2.72948 -0.086,0.99492 0.71963,1.86528 2.52185,2.85404 l 14.03956,7.82246 c 9.84765,5.45897 12.12813,12.40953 11.51916,19.35703 -1.09485,12.54024 -10.75338,22.22029 -31.14374,22.22029"
       fill="#7fc342"
       class="mkkdsak4732"
       id="path2"
       style="stroke-width:0.0264583" />
    <path
       d="m 330.24959,124.77426 c -2.49268,-0.2491 -5.49128,-0.49361 -8.51138,-0.49361 -7.04748,0 -9.53242,5.33595 -10.17214,12.65865 l -0.84883,9.68005 c -0.64739,7.44726 0.90114,12.78474 7.94704,12.78474 3.6521,0 6.18935,-0.2491 8.61129,-0.61817 z m 15.1605,51.13742 c -6.66145,1.36705 -17.13499,3.10315 -28.46195,3.10315 -20.64102,0 -32.10027,-11.41462 -30.26573,-32.39549 l 0.84575,-9.68005 c 1.72689,-19.73531 13.65667,-32.39549 35.93688,-32.39549 2.01598,0 5.87109,0.49819 8.47913,0.87036 l 1.83912,-20.976267 c 0.11856,-1.36551 1.3486,-2.484984 2.73561,-2.484984 h 18.74966 c 1.38858,0 2.67412,1.119474 2.55416,2.484984 l -7.65331,87.503347 c -0.18598,2.1067 -0.90114,3.10162 -4.75932,3.97044"
       fill="#fdb913"
       class="mkkdsak4732"
       id="path3"
       style="stroke-width:0.0264583" />
    <path
       d="m 197.13081,194.81966 c 0,0.53353 -0.15402,0.93496 -0.45507,1.20097 -0.31036,0.26619 -0.82111,0.4016 -1.53772,0.4016 -0.0523,0 -0.13716,-0.003 -0.24759,-0.006 -0.11042,-0.006 -0.22608,-0.006 -0.34464,-0.0174 -0.12147,-0.005 -0.23539,-0.006 -0.3493,-0.0116 -0.10926,-0.006 -0.19237,-0.006 -0.24294,-0.006 v -3.18005 c 0.0628,-0.0116 0.14123,-0.0116 0.24294,-0.0174 0.10461,-0.003 0.21388,-0.006 0.32895,-0.0116 0.11508,-0.006 0.22609,-0.0116 0.33651,-0.0174 0.10927,-0.003 0.20168,-0.006 0.27549,-0.006 0.66273,0 1.1625,0.11856 1.49465,0.3551 0.3307,0.23539 0.49808,0.63664 0.49808,1.19331 z m 0.69505,-2.53725 c -0.34755,-0.23829 -0.75811,-0.40626 -1.21632,-0.50448 -0.46263,-0.0982 -0.95037,-0.14588 -1.47012,-0.14588 -0.48414,0 -0.95798,0.0174 -1.41009,0.0465 -0.45043,0.0291 -0.85499,0.0709 -1.1979,0.12612 -0.13367,0.0174 -0.23829,0.0581 -0.3121,0.11217 -0.0802,0.0587 -0.11507,0.15343 -0.11507,0.2842 v 9.15569 c 0,0.0709 0.0291,0.13251 0.0767,0.18424 0.0523,0.0523 0.11857,0.0785 0.18889,0.0785 h 1.33169 c 0.0692,0 0.13076,-0.0291 0.17842,-0.0785 0.0465,-0.0523 0.0738,-0.11392 0.0738,-0.18424 v -3.4753 c 0.15228,0.0116 0.34116,0.0233 0.5719,0.0349 0.23073,0.0116 0.43531,0.0174 0.6135,0.0174 0.51843,0 1.00419,-0.0465 1.46548,-0.15053 0.46263,-0.10171 0.8719,-0.27548 1.22097,-0.51958 0.35045,-0.24469 0.63355,-0.56434 0.83958,-0.96263 0.2104,-0.40277 0.31675,-0.89347 0.31675,-1.4778 v -0.12147 c 0,-0.5859 -0.10635,-1.07485 -0.31384,-1.47006 -0.20923,-0.39347 -0.48762,-0.71045 -0.84267,-0.95188"
       fill="#231f20"
       class="mkkdsak4732"
       id="path4"
       style="stroke-width:0.0264583" />
    <path
       d="m 203.48318,199.96036 c -0.19354,0.10635 -0.41032,0.19528 -0.64739,0.26909 -0.23829,0.0662 -0.47483,0.10171 -0.71504,0.10171 -0.34116,0 -0.58584,-0.0523 -0.73963,-0.16448 -0.15052,-0.10927 -0.22608,-0.3307 -0.22608,-0.65971 v -0.0523 c 0,-0.18598 0.0232,-0.35046 0.0599,-0.49343 0.0407,-0.14007 0.11682,-0.25805 0.22609,-0.3522 0.11507,-0.0924 0.26618,-0.16448 0.45681,-0.21388 0.19354,-0.0407 0.43997,-0.0692 0.74579,-0.0692 h 0.83959 z m -1.17174,-5.93415 c -0.45856,0 -0.87807,0.0233 -1.25788,0.0663 -0.37545,0.0465 -0.69504,0.0924 -0.96105,0.14297 -0.16739,0.0407 -0.2505,0.12903 -0.2505,0.28014 v 0.84575 c 0,0.0936 0.0174,0.15692 0.0663,0.18307 0.0407,0.0291 0.10171,0.0407 0.17087,0.0407 h 0.0645 c 0.22783,-0.0233 0.53353,-0.0523 0.93647,-0.0738 0.39696,-0.0232 0.80885,-0.0349 1.23172,-0.0349 0.40161,0 0.69354,0.0709 0.88882,0.21388 0.18598,0.14298 0.28304,0.43357 0.28304,0.87342 v 0.59049 h -0.83802 c -0.57538,0 -1.07026,0.0465 -1.47931,0.14762 -0.41206,0.0971 -0.752,0.24294 -1.01644,0.43648 -0.25515,0.19528 -0.45043,0.43356 -0.57073,0.71969 -0.11857,0.28304 -0.17669,0.61507 -0.17669,0.99645 v 0.0523 c 0,0.45391 0.0692,0.82116 0.20458,1.10414 0.13833,0.28595 0.31501,0.51378 0.53179,0.67814 0.21853,0.16738 0.46263,0.28304 0.73812,0.34581 0.27548,0.0628 0.55039,0.0907 0.82273,0.0907 0.3214,0 0.6335,-0.0523 0.94572,-0.15053 0.31035,-0.1017 0.62275,-0.24468 0.93339,-0.43182 v 0.21504 c 0,0.0709 0.0232,0.13251 0.0802,0.18598 0.0465,0.0523 0.11391,0.0767 0.18307,0.0767 h 1.13176 c 0.0721,0 0.13541,-0.0232 0.18772,-0.0767 0.0523,-0.0523 0.0767,-0.11507 0.0767,-0.18598 v -4.79001 c 0,-0.86423 -0.24933,-1.4993 -0.75038,-1.91607 -0.49982,-0.41672 -1.22561,-0.62583 -2.17592,-0.62583"
       fill="#231f20"
       class="mkkdsak4732"
       id="path5"
       style="stroke-width:0.0264583" />
    <path
       d="m 210.15084,194.02621 c -0.26444,0 -0.56433,0.0465 -0.90114,0.12787 -0.33825,0.0814 -0.67046,0.25398 -0.99796,0.51203 v -0.28014 c 0,-0.0721 -0.0291,-0.13367 -0.0802,-0.18772 -0.0523,-0.0523 -0.11392,-0.0785 -0.18599,-0.0785 h -1.1579 c -0.0709,0 -0.13542,0.0232 -0.18424,0.0785 -0.0523,0.0523 -0.0814,0.11565 -0.0814,0.18772 v 6.95518 c 0,0.0738 0.0291,0.14007 0.0814,0.19354 0.0465,0.0581 0.11391,0.086 0.18424,0.086 h 1.22712 c 0.0674,0 0.12903,-0.0291 0.18308,-0.086 0.0523,-0.0523 0.0802,-0.11973 0.0802,-0.19354 v -5.34667 c 0.28479,-0.15053 0.5719,-0.26735 0.85808,-0.35395 0.29059,-0.0814 0.61507,-0.12321 0.97495,-0.12321 0.0738,0 0.13541,-0.0291 0.18888,-0.0831 0.0523,-0.0523 0.0802,-0.11217 0.0802,-0.18308 v -0.95954 c 0,-0.0709 -0.0291,-0.13252 -0.0802,-0.18773 -0.0523,-0.0523 -0.11507,-0.0785 -0.18888,-0.0785"
       fill="#231f20"
       class="mkkdsak4732"
       id="path6"
       style="stroke-width:0.0264583" />
    <path
       d="m 215.49752,200.35859 h -0.70737 c -0.12321,0 -0.21853,-0.006 -0.2842,-0.0232 -0.0663,-0.0116 -0.11857,-0.0407 -0.15402,-0.0982 -0.0349,-0.0523 -0.0581,-0.12786 -0.0663,-0.22608 -0.006,-0.0971 -0.0116,-0.22899 -0.0116,-0.39986 v -4.17802 h 1.19789 c 0.0674,0 0.13077,-0.0232 0.18599,-0.0767 0.0523,-0.0523 0.0802,-0.11508 0.0802,-0.18773 v -0.78269 c 0,-0.0738 -0.0291,-0.13542 -0.0802,-0.18947 -0.0581,-0.0523 -0.11857,-0.0785 -0.18599,-0.0785 h -1.19789 v -1.36667 c 0,-0.13542 -0.0674,-0.19993 -0.21214,-0.19993 h -0.0523 l -1.22713,0.21213 c -0.0721,0.0174 -0.13542,0.0465 -0.18424,0.0936 -0.0523,0.0407 -0.0802,0.10171 -0.0802,0.17204 v 1.09026 h -1.25172 c -0.0692,0 -0.13251,0.0232 -0.18481,0.0785 -0.0581,0.0523 -0.0767,0.11565 -0.0767,0.18946 v 0.59817 c 0,0.0721 0.0232,0.12902 0.0767,0.17377 0.0523,0.0407 0.11507,0.0756 0.18481,0.0924 l 1.25172,0.18308 v 4.17801 c 0,0.44578 0.0407,0.80425 0.11856,1.08718 0.0785,0.27665 0.20284,0.49343 0.3708,0.6428 0.16448,0.14936 0.38417,0.25398 0.65355,0.30745 0.26619,0.0523 0.58741,0.0767 0.95798,0.0767 0.15053,0 0.29989,-0.006 0.45042,-0.0232 0.14298,-0.0174 0.2935,-0.0407 0.45217,-0.0674 0.17378,-0.0291 0.25689,-0.10636 0.25689,-0.23713 v -0.83959 c 0,-0.13193 -0.0936,-0.19993 -0.28014,-0.19993"
       fill="#231f20"
       class="mkkdsak4732"
       id="path7"
       style="stroke-width:0.0264583" />
    <path
       d="m 218.27317,194.12002 h -1.22405 c -0.0709,0 -0.13541,0.0232 -0.18423,0.0785 -0.0581,0.0523 -0.0814,0.11566 -0.0814,0.18947 v 6.95518 c 0,0.0721 0.0232,0.14006 0.0814,0.19353 0.0465,0.0587 0.11391,0.0849 0.18423,0.0849 h 1.22405 c 0.0709,0 0.13077,-0.0291 0.18308,-0.0849 0.0581,-0.0523 0.0831,-0.12146 0.0831,-0.19353 v -6.95518 c 0,-0.0738 -0.0291,-0.13542 -0.0831,-0.18947 -0.0523,-0.0523 -0.11217,-0.0785 -0.18308,-0.0785"
       fill="#231f20"
       class="mkkdsak4732"
       id="path8"
       style="stroke-width:0.0264583" />
    <path
       d="m 218.31159,191.42131 h -1.28862 c -0.0767,0 -0.13716,0.0232 -0.19528,0.0767 -0.0581,0.0581 -0.0848,0.11508 -0.0848,0.18772 v 1.1718 c 0,0.0692 0.0291,0.13252 0.0848,0.18598 0.0587,0.0523 0.11856,0.0785 0.19528,0.0785 h 1.28862 c 0.0709,0 0.13367,-0.0233 0.18889,-0.0785 0.0523,-0.0523 0.0802,-0.11681 0.0802,-0.18598 v -1.1718 c 0,-0.0721 -0.0291,-0.13251 -0.0802,-0.18772 -0.0581,-0.0523 -0.11857,-0.0767 -0.18889,-0.0767"
       fill="#231f20"
       class="mkkdsak4732"
       id="path9"
       style="stroke-width:0.0264583" />
    <path
       d="m 224.33797,200.18638 c -0.12322,0.0232 -0.30745,0.0465 -0.55214,0.0674 -0.24584,0.0174 -0.48297,0.0232 -0.72736,0.0232 -0.28478,0 -0.51842,-0.0465 -0.70277,-0.14763 -0.18424,-0.0936 -0.33245,-0.22608 -0.43997,-0.39346 -0.10577,-0.16739 -0.17842,-0.3708 -0.21852,-0.59508 -0.0407,-0.22899 -0.0587,-0.48123 -0.0587,-0.75503 v -1.01953 c 0,-0.27664 0.0174,-0.52423 0.0587,-0.75502 0.0407,-0.22783 0.11217,-0.42602 0.21852,-0.59049 0.10752,-0.16913 0.25515,-0.30164 0.43997,-0.39812 0.18481,-0.10171 0.41845,-0.14762 0.70277,-0.14762 0.15983,0 0.36615,0.006 0.61816,0.0291 0.25224,0.0174 0.47541,0.0407 0.66122,0.0662 z m 1.49471,-8.68666 h -1.23021 c -0.0692,0 -0.12903,0.0232 -0.18424,0.0802 -0.0523,0.0523 -0.0802,0.11217 -0.0802,0.18482 v 2.3558 c -0.25223,-0.0349 -0.48297,-0.0587 -0.70271,-0.0738 -0.22434,-0.0116 -0.41672,-0.0174 -0.57655,-0.0174 -1.07026,0 -1.86684,0.29351 -2.39119,0.88417 -0.52773,0.59049 -0.78578,1.40858 -0.78578,2.45577 v 1.02417 c 0,1.04563 0.25805,1.86371 0.78578,2.45112 0.52423,0.59357 1.32093,0.88423 2.39119,0.88423 0.42602,0 0.8765,-0.0291 1.34552,-0.0907 0.47077,-0.0634 0.91189,-0.14471 1.33477,-0.25224 0.14297,-0.0407 0.24468,-0.0907 0.28594,-0.14006 0.0465,-0.0465 0.0674,-0.11857 0.0674,-0.21969 v -9.25868 c 0,-0.0721 -0.0291,-0.13251 -0.0814,-0.18482 -0.0523,-0.0581 -0.11042,-0.0802 -0.17842,-0.0802"
       fill="#231f20"
       class="mkkdsak4732"
       id="path10"
       style="stroke-width:0.0264583" />
    <path
       d="m 231.87288,198.41642 c 0,0.55039 -0.12146,0.98727 -0.3615,1.31169 -0.24119,0.31966 -0.59508,0.48297 -1.06561,0.48297 -0.46612,0 -0.82274,-0.16273 -1.06259,-0.48297 -0.2412,-0.3243 -0.36151,-0.76113 -0.36151,-1.31169 v -1.07637 c 0,-0.55039 0.11973,-0.98727 0.36151,-1.31169 0.24003,-0.32314 0.59665,-0.48588 1.06259,-0.48588 0.47076,0 0.82419,0.16274 1.06561,0.48588 0.24004,0.32431 0.3615,0.76119 0.3615,1.31169 z m 0.94107,-3.44449 c -0.26619,-0.2906 -0.59659,-0.52598 -0.99029,-0.69197 -0.39231,-0.17087 -0.85499,-0.25398 -1.37778,-0.25398 -0.52307,0 -0.98111,0.0831 -1.37324,0.25398 -0.39521,0.16622 -0.7273,0.40161 -0.99645,0.69197 -0.2627,0.29234 -0.46611,0.63966 -0.60275,1.04411 -0.13833,0.40277 -0.20458,0.84424 -0.20458,1.32401 v 1.07637 c 0,0.47948 0.0662,0.91962 0.20458,1.32558 0.13658,0.40277 0.33999,0.75038 0.60275,1.04254 0.26909,0.2906 0.6013,0.52598 0.99645,0.69354 0.39231,0.16622 0.8504,0.24933 1.37324,0.24933 0.5225,0 0.98565,-0.0831 1.37778,-0.24933 0.39346,-0.16738 0.72428,-0.40277 0.99029,-0.69354 0.27084,-0.29234 0.46902,-0.63966 0.60746,-1.04254 0.13542,-0.40567 0.20458,-0.84581 0.20458,-1.32558 v -1.07637 c 0,-0.48006 -0.0692,-0.92113 -0.20458,-1.32401 -0.13832,-0.40451 -0.33709,-0.75195 -0.60746,-1.04411"
       fill="#231f20"
       class="mkkdsak4732"
       id="path11"
       style="stroke-width:0.0264583" />
    <path
       d="m 243.95946,197.49686 c -0.13658,-0.21679 -0.32721,-0.43357 -0.56608,-0.64274 -0.23828,-0.21039 -0.54283,-0.41381 -0.90264,-0.61665 l -1.60078,-0.89497 c -0.21039,-0.11392 -0.38766,-0.21853 -0.53063,-0.31675 -0.14007,-0.10171 -0.25398,-0.19528 -0.33825,-0.28595 -0.0831,-0.0907 -0.14007,-0.18598 -0.17204,-0.28013 -0.0291,-0.0924 -0.0465,-0.19354 -0.0465,-0.29815 0,-0.30571 0.10752,-0.53644 0.32605,-0.70121 0.21678,-0.16157 0.57189,-0.24468 1.07026,-0.24468 0.43241,0 0.86883,0.0116 1.30396,0.0291 0.43357,0.0232 0.8704,0.0581 1.31786,0.10461 h 0.0291 c 0.068,0 0.12437,-0.0291 0.16331,-0.0692 0.0407,-0.0407 0.0587,-0.10171 0.0587,-0.17203 v -0.9842 c 0,-0.0738 -0.0174,-0.12611 -0.0645,-0.16622 -0.0465,-0.0407 -0.10171,-0.0692 -0.17087,-0.086 -0.11856,-0.0291 -0.27374,-0.0581 -0.46728,-0.0767 -0.19354,-0.0349 -0.41381,-0.0581 -0.6489,-0.0878 -0.24294,-0.0232 -0.48762,-0.0407 -0.73352,-0.0581 -0.2505,-0.0116 -0.48588,-0.0232 -0.7058,-0.0232 -0.6213,0 -1.14257,0.0599 -1.56393,0.18599 -0.42311,0.12437 -0.7627,0.29989 -1.02255,0.52597 -0.26619,0.22434 -0.45507,0.49692 -0.56608,0.8042 -0.11508,0.30919 -0.17378,0.65204 -0.17378,1.01336 0,0.22899 0.0291,0.45508 0.0738,0.66896 0.0465,0.21969 0.13368,0.42601 0.25515,0.62431 0.11682,0.20284 0.27665,0.39521 0.47193,0.58125 0.20283,0.18598 0.45681,0.37371 0.76885,0.55969 l 1.75613,1.05178 c 0.21969,0.12903 0.40103,0.24759 0.54458,0.3522 0.14472,0.0982 0.25805,0.20284 0.34465,0.29816 0.0924,0.0936 0.15227,0.19702 0.18772,0.29989 0.0407,0.10462 0.0523,0.21679 0.0523,0.3522 0,0.39231 -0.10752,0.68581 -0.32779,0.88876 -0.21504,0.20632 -0.61973,0.30745 -1.21481,0.30745 -0.12438,0 -0.2906,-0.005 -0.49983,-0.0174 -0.21039,-0.006 -0.42891,-0.0174 -0.66122,-0.0291 -0.22608,-0.0116 -0.44751,-0.0291 -0.66738,-0.0407 -0.21853,-0.0116 -0.39347,-0.0232 -0.52598,-0.0465 h -0.0233 c -0.0721,0 -0.13251,0.0233 -0.18133,0.0738 -0.0465,0.0465 -0.0721,0.10926 -0.0721,0.17843 v 0.95954 c 0,0.0709 0.0233,0.12787 0.0721,0.17204 0.0465,0.0465 0.10927,0.0738 0.18133,0.0936 0.31501,0.0709 0.6628,0.12786 1.03644,0.17203 0.37545,0.0407 0.81193,0.0633 1.31786,0.0633 0.66581,0 1.22096,-0.0767 1.66842,-0.24468 0.44926,-0.16157 0.80734,-0.37371 1.078,-0.63972 0.27083,-0.25805 0.46611,-0.55329 0.57654,-0.88725 0.11973,-0.3336 0.17552,-0.66587 0.17552,-1.00412 0,-0.26619 -0.0291,-0.51668 -0.0831,-0.75811 -0.0616,-0.24119 -0.15867,-0.46902 -0.29699,-0.6951"
       fill="#231f20"
       class="mkkdsak4732"
       id="path12"
       style="stroke-width:0.0264583" />
    <path
       d="m 249.72756,198.41642 c 0,0.55039 -0.11856,0.98727 -0.35859,1.31169 -0.23829,0.31966 -0.59358,0.48297 -1.06719,0.48297 -0.46437,0 -0.82116,-0.16273 -1.06259,-0.48297 -0.23713,-0.3243 -0.35511,-0.76113 -0.35511,-1.31169 v -1.07637 c 0,-0.55039 0.11856,-0.98727 0.35511,-1.31169 0.24119,-0.32314 0.59816,-0.48588 1.06259,-0.48588 0.47367,0 0.82884,0.16274 1.06719,0.48588 0.24003,0.32431 0.35859,0.76119 0.35859,1.31169 z m 0.94572,-3.44449 c -0.26619,-0.2906 -0.59666,-0.52598 -0.99187,-0.69197 -0.39346,-0.17087 -0.85191,-0.25398 -1.37934,-0.25398 -0.52133,0 -0.98111,0.0831 -1.37475,0.25398 -0.39347,0.16622 -0.72271,0.40161 -0.99029,0.69197 -0.26619,0.29234 -0.46728,0.63966 -0.60589,1.04411 -0.13542,0.40277 -0.20458,0.84424 -0.20458,1.32401 v 1.07637 c 0,0.47948 0.0692,0.91962 0.20458,1.32558 0.13832,0.40277 0.33999,0.75038 0.60589,1.04254 0.26735,0.2906 0.59665,0.52598 0.99029,0.69354 0.39347,0.16622 0.85342,0.24933 1.37475,0.24933 0.52714,0 0.9857,-0.0831 1.37934,-0.24933 0.39521,-0.16738 0.7258,-0.40277 0.99187,-0.69354 0.26444,-0.29234 0.46902,-0.63966 0.60432,-1.04254 0.13832,-0.40567 0.20748,-0.84581 0.20748,-1.32558 v -1.07637 c 0,-0.48006 -0.0692,-0.92113 -0.20748,-1.32401 -0.13542,-0.40451 -0.34,-0.75195 -0.60432,-1.04411"
       fill="#231f20"
       class="mkkdsak4732"
       id="path13"
       style="stroke-width:0.0264583" />
    <path
       d="m 257.28857,194.19842 c -0.15052,-0.0465 -0.36905,-0.0831 -0.66273,-0.11972 -0.29524,-0.0349 -0.64431,-0.0523 -1.05184,-0.0523 -0.43531,0 -0.83651,0.0662 -1.20405,0.19993 -0.36906,0.13251 -0.68738,0.33651 -0.95798,0.60432 -0.26909,0.272 -0.48414,0.60892 -0.63507,1.0118 -0.15867,0.40451 -0.23713,0.87649 -0.23713,1.41782 v 1.23631 c 0,0.54109 0.0785,1.01028 0.23713,1.41624 0.15053,0.40451 0.36615,0.74277 0.63507,1.01186 0.27083,0.27083 0.58892,0.47367 0.95798,0.60432 0.36731,0.13368 0.76891,0.19819 1.20405,0.19819 0.40742,0 0.7566,-0.0174 1.05184,-0.0523 0.2935,-0.0349 0.51203,-0.0738 0.66273,-0.11972 0.11682,-0.0232 0.19238,-0.0645 0.23074,-0.11217 0.0349,-0.0465 0.0465,-0.12787 0.0465,-0.23074 v -0.86574 c 0,-0.0721 -0.0232,-0.12321 -0.0663,-0.15402 -0.0407,-0.0291 -0.10171,-0.0465 -0.17204,-0.0465 h -0.0407 c -0.13077,0.0174 -0.25398,0.0349 -0.36906,0.0465 -0.11507,0.0116 -0.23538,0.0174 -0.3615,0.0291 -0.12612,0.003 -0.26444,0.0116 -0.42601,0.0116 -0.15692,0.006 -0.3429,0.006 -0.55853,0.006 -0.15808,0 -0.31384,-0.0291 -0.46437,-0.0802 -0.15053,-0.0523 -0.28769,-0.14297 -0.40741,-0.27083 -0.11973,-0.12903 -0.21504,-0.30571 -0.2906,-0.53353 -0.0767,-0.22609 -0.11217,-0.51029 -0.11217,-0.85808 v -1.23631 c 0,-0.34464 0.0349,-0.63204 0.11217,-0.86115 0.0756,-0.22608 0.17087,-0.40102 0.2906,-0.53063 0.11972,-0.12612 0.25688,-0.21969 0.40741,-0.27374 0.15053,-0.0523 0.30571,-0.0767 0.46437,-0.0767 0.21505,0 0.40161,0.002 0.55853,0.006 0.16157,0.003 0.29989,0.006 0.42601,0.0116 0.12612,0.005 0.24585,0.0116 0.3615,0.0232 0.11508,0.0116 0.23829,0.0291 0.36906,0.0465 h 0.0407 c 0.0709,0 0.12903,-0.0174 0.17204,-0.0465 0.0465,-0.0291 0.0663,-0.0831 0.0663,-0.15227 v -0.86267 c 0,-0.10926 -0.0174,-0.18482 -0.0465,-0.23364 -0.0407,-0.0465 -0.11392,-0.0878 -0.23074,-0.11565"
       fill="#231f20"
       class="mkkdsak4732"
       id="path14"
       style="stroke-width:0.0264583" />
    <path
       d="m 260.29177,194.12002 h -1.22556 c -0.0709,0 -0.13368,0.0232 -0.18598,0.0785 -0.0523,0.0523 -0.0814,0.11566 -0.0814,0.18947 v 6.95518 c 0,0.0721 0.0291,0.14006 0.0814,0.19353 0.0523,0.0587 0.11507,0.0849 0.18598,0.0849 h 1.22556 c 0.0709,0 0.13077,-0.0291 0.18423,-0.0849 0.0523,-0.0523 0.0785,-0.12146 0.0785,-0.19353 v -6.95518 c 0,-0.0738 -0.0232,-0.13542 -0.0785,-0.18947 -0.0523,-0.0523 -0.11391,-0.0785 -0.18423,-0.0785"
       fill="#231f20"
       class="mkkdsak4732"
       id="path15"
       style="stroke-width:0.0264583" />
    <path
       d="m 260.33024,191.42131 h -1.29019 c -0.0709,0 -0.13832,0.0232 -0.19353,0.0767 -0.0587,0.0581 -0.0831,0.11508 -0.0831,0.18772 v 1.1718 c 0,0.0692 0.0232,0.13252 0.0831,0.18598 0.0581,0.0523 0.12321,0.0785 0.19353,0.0785 h 1.29019 c 0.0738,0 0.13368,-0.0233 0.18424,-0.0785 0.0523,-0.0523 0.0814,-0.11681 0.0814,-0.18598 v -1.1718 c 0,-0.0721 -0.0291,-0.13251 -0.0814,-0.18772 -0.0523,-0.0523 -0.11043,-0.0767 -0.18424,-0.0767"
       fill="#231f20"
       class="mkkdsak4732"
       id="path16"
       style="stroke-width:0.0264583" />
    <path
       d="m 265.96606,199.96036 c -0.19354,0.10635 -0.4109,0.19528 -0.64739,0.26909 -0.23364,0.0662 -0.47367,0.10171 -0.71504,0.10171 -0.34,0 -0.58439,-0.0523 -0.73509,-0.16448 -0.15053,-0.10927 -0.23074,-0.3307 -0.23074,-0.65971 v -0.0523 c 0,-0.18598 0.0232,-0.35046 0.0599,-0.49343 0.0407,-0.14007 0.11856,-0.25805 0.23073,-0.3522 0.11101,-0.0924 0.26154,-0.16448 0.45217,-0.21388 0.19528,-0.0407 0.44461,-0.0692 0.74578,-0.0692 h 0.83965 z m -1.1718,-5.93415 c -0.45682,0 -0.87801,0.0233 -1.25171,0.0663 -0.38126,0.0465 -0.69964,0.0924 -0.96571,0.14297 -0.16738,0.0407 -0.25398,0.12903 -0.25398,0.28014 v 0.84575 c 0,0.0936 0.0233,0.15692 0.0674,0.18307 0.0407,0.0291 0.1017,0.0407 0.17203,0.0407 h 0.0662 c 0.2197,-0.0233 0.53238,-0.0523 0.92881,-0.0738 0.40276,-0.0232 0.81651,-0.0349 1.23631,-0.0349 0.40276,0 0.69353,0.0709 0.88573,0.21388 0.19354,0.14298 0.28595,0.43357 0.28595,0.87342 v 0.59049 h -0.83349 c -0.57828,0 -1.07334,0.0465 -1.4839,0.14762 -0.4138,0.0971 -0.74886,0.24294 -1.01185,0.43648 -0.2627,0.19528 -0.45042,0.43356 -0.57189,0.71969 -0.11973,0.28304 -0.18017,0.61507 -0.18017,0.99645 v 0.0523 c 0,0.45391 0.0709,0.82116 0.20458,1.10414 0.13832,0.28595 0.31849,0.51378 0.53353,0.67814 0.21853,0.16738 0.46263,0.28304 0.7366,0.34581 0.27665,0.0628 0.55039,0.0907 0.82727,0.0907 0.31966,0 0.63513,-0.0523 0.94572,-0.15053 0.30745,-0.1017 0.61815,-0.24468 0.93031,-0.43182 v 0.21504 c 0,0.0709 0.0291,0.13251 0.0785,0.18598 0.0523,0.0523 0.11392,0.0767 0.18482,0.0767 h 1.13024 c 0.0738,0 0.13542,-0.0232 0.18889,-0.0767 0.0523,-0.0523 0.0802,-0.11507 0.0802,-0.18598 v -4.79001 c 0,-0.86423 -0.25398,-1.4993 -0.75352,-1.91607 -0.50157,-0.41672 -1.22707,-0.62583 -2.17743,-0.62583"
       fill="#231f20"
       class="mkkdsak4732"
       id="path17"
       style="stroke-width:0.0264583" />
    <path
       d="m 270.63152,191.49815 h -1.23631 c -0.0709,0 -0.13252,0.0291 -0.18599,0.0814 -0.0523,0.0523 -0.0814,0.11217 -0.0814,0.18482 v 9.577 c 0,0.0738 0.0291,0.14006 0.0814,0.19353 0.0523,0.0581 0.11566,0.086 0.18599,0.086 h 1.23631 c 0.0709,0 0.13077,-0.0291 0.17842,-0.086 0.0523,-0.0523 0.0756,-0.11972 0.0756,-0.19353 v -9.577 c 0,-0.0721 -0.0232,-0.13251 -0.0756,-0.18482 -0.0465,-0.0523 -0.10752,-0.0814 -0.17842,-0.0814"
       fill="#231f20"
       class="mkkdsak4732"
       id="path18"
       style="stroke-width:0.0264583" />
    <path
       d="m 281.93233,197.66755 c 0,0.49809 -0.0616,0.9073 -0.17959,1.23172 -0.11973,0.32605 -0.28769,0.58439 -0.49343,0.77502 -0.20633,0.19063 -0.45391,0.32315 -0.74736,0.39812 -0.2842,0.0767 -0.59508,0.11391 -0.91956,0.11391 -0.24933,0 -0.46263,-0.006 -0.63972,-0.0116 -0.17959,-0.0116 -0.33825,-0.0174 -0.47948,-0.0291 v -6.91676 c 0.14123,-0.0116 0.29989,-0.0174 0.47948,-0.0291 0.17668,-0.0116 0.39056,-0.0116 0.63972,-0.0116 0.3243,0 0.63507,0.0407 0.91956,0.11217 0.2935,0.0738 0.54109,0.20749 0.74736,0.39812 0.20574,0.19237 0.3737,0.45042 0.49343,0.77345 0.11856,0.3243 0.17959,0.73503 0.17959,1.23172 z m -2.33732,-6.03561 c -0.24004,0 -0.48879,0.003 -0.75811,0.0116 -0.25689,0.006 -0.51029,0.0174 -0.75195,0.0407 -0.24759,0.0174 -0.47193,0.0407 -0.67046,0.0523 -0.19528,0.0174 -0.34581,0.0349 -0.44752,0.0581 -0.11042,0.0116 -0.19818,0.0523 -0.25688,0.11508 -0.0581,0.0616 -0.0895,0.16157 -0.0895,0.29234 v 8.95581 c 0,0.13077 0.0349,0.23073 0.0895,0.2935 0.0581,0.0599 0.14587,0.1 0.25688,0.11857 0.10171,0.0174 0.25224,0.0349 0.44752,0.0523 0.19819,0.0174 0.42311,0.0349 0.67046,0.0523 0.2412,0.0174 0.49518,0.0291 0.75195,0.0407 0.26909,0.0116 0.51842,0.0116 0.75811,0.0116 1.34086,0 2.37271,-0.34755 3.10007,-1.04103 0.72428,-0.69505 1.0841,-1.70534 1.0841,-3.02935 v -1.95443 c 0,-1.32093 -0.35976,-2.32814 -1.0841,-3.02627 -0.72736,-0.6951 -1.75921,-1.04416 -3.10007,-1.04416"
       fill="#231f20"
       class="mkkdsak4732"
       id="path19"
       style="stroke-width:0.0264583" />
    <path
       d="m 289.56262,197.23544 h -2.83256 v -0.0581 c 0,-0.53179 0.13368,-0.93648 0.39812,-1.21638 0.27084,-0.28129 0.60897,-0.41962 1.03185,-0.41962 0.41962,0 0.75502,0.14298 1.01796,0.42602 0.25398,0.28304 0.38474,0.68737 0.38474,1.21021 z m 0.94571,-2.262 c -0.26618,-0.30454 -0.59357,-0.53353 -0.9857,-0.69813 -0.39521,-0.16622 -0.85191,-0.24759 -1.36243,-0.24759 -0.50622,0 -0.95495,0.0785 -1.35632,0.23829 -0.40161,0.15983 -0.73347,0.38766 -0.99948,0.6782 -0.272,0.29234 -0.47542,0.64582 -0.61821,1.06718 -0.14298,0.41497 -0.21388,0.87958 -0.21388,1.39469 v 0.98419 c 0,0.65814 0.10577,1.1994 0.3121,1.63001 0.20574,0.43066 0.46728,0.77194 0.78577,1.02411 0.31849,0.2534 0.6643,0.43067 1.03795,0.53063 0.37835,0.1 0.73044,0.15228 1.07334,0.15228 0.29699,0 0.5626,-0.003 0.78578,-0.0116 0.23073,-0.0116 0.43647,-0.0174 0.62896,-0.0407 0.18889,-0.0174 0.38126,-0.0407 0.56608,-0.0674 0.18598,-0.0233 0.38475,-0.0634 0.59514,-0.10287 0.12438,-0.0174 0.20574,-0.0523 0.23364,-0.10636 0.0349,-0.0581 0.0465,-0.13077 0.0465,-0.24003 v -0.87807 c 0,-0.0709 -0.0233,-0.12147 -0.0645,-0.15227 -0.0465,-0.0349 -0.10287,-0.0465 -0.17087,-0.0465 h -0.0465 c -0.28014,0.0232 -0.63972,0.0581 -1.06719,0.0878 -0.43182,0.0291 -0.89038,0.0465 -1.37934,0.0465 -0.31849,0 -0.58003,-0.0523 -0.79042,-0.15227 -0.20574,-0.10287 -0.37371,-0.23655 -0.49227,-0.39986 -0.11972,-0.16448 -0.20283,-0.34581 -0.24584,-0.54574 -0.0465,-0.19702 -0.0663,-0.39521 -0.0663,-0.59049 v -0.0407 h 4.33488 c 0.18133,0 0.26735,-0.11217 0.26735,-0.33361 v -0.74427 c 0,-0.49692 -0.0692,-0.95031 -0.20458,-1.36243 -0.13716,-0.41207 -0.34,-0.76729 -0.60584,-1.07027"
       fill="#231f20"
       class="mkkdsak4732"
       id="path20"
       style="stroke-width:0.0264583" />
    <path
       d="m 301.80147,194.8443 c -0.16157,-0.25224 -0.38591,-0.44926 -0.67511,-0.59665 -0.28595,-0.14472 -0.65657,-0.22144 -1.10868,-0.22144 -0.46438,0 -0.85651,0.0523 -1.19023,0.15809 -0.33244,0.10752 -0.66581,0.25398 -1.00412,0.44112 -0.15053,-0.18772 -0.35395,-0.3336 -0.6074,-0.44112 -0.25224,-0.10578 -0.57073,-0.15809 -0.94729,-0.15809 -0.4016,0 -0.7473,0.0645 -1.03795,0.19063 -0.2935,0.12322 -0.58125,0.27549 -0.86725,0.45392 v -0.28014 c 0,-0.0738 -0.0291,-0.13542 -0.0802,-0.19237 -0.0465,-0.0523 -0.11217,-0.0785 -0.18598,-0.0785 h -1.15634 c -0.0721,0 -0.13542,0.0232 -0.18482,0.0785 -0.0581,0.0523 -0.0848,0.11565 -0.0848,0.18947 v 6.95517 c 0,0.0721 0.0291,0.13833 0.0848,0.19354 0.0465,0.0587 0.11217,0.0849 0.18482,0.0849 h 1.22707 c 0.0692,0 0.12903,-0.0291 0.18133,-0.0849 0.0581,-0.0581 0.0802,-0.12147 0.0802,-0.19237 v -5.36365 c 0.54283,-0.29059 0.94728,-0.43647 1.22097,-0.43647 0.19063,0 0.3458,0.0174 0.46146,0.0599 0.11856,0.0407 0.21214,0.10752 0.2813,0.20284 0.0674,0.0982 0.11507,0.22899 0.13367,0.39346 0.0349,0.16274 0.0465,0.37197 0.0465,0.63048 v 4.51324 c 0,0.0709 0.0291,0.13717 0.0767,0.19238 0.0581,0.0587 0.11856,0.0848 0.18772,0.0848 h 1.22713 c 0.0692,0 0.12902,-0.0291 0.18133,-0.0848 0.0581,-0.0581 0.0814,-0.12147 0.0814,-0.19238 v -4.51324 c 0,-0.16738 -0.005,-0.33244 -0.0116,-0.48878 -0.0116,-0.16274 -0.0232,-0.31675 -0.0407,-0.46728 0.24119,-0.12147 0.47541,-0.20923 0.70586,-0.25863 0.23073,-0.0465 0.40916,-0.0721 0.53179,-0.0721 0.18772,0 0.3429,0.0174 0.46437,0.0599 0.12612,0.0407 0.22434,0.10752 0.2935,0.20284 0.0738,0.0982 0.12321,0.22899 0.15053,0.39347 0.0349,0.16273 0.0465,0.37196 0.0465,0.63047 v 4.51325 c 0,0.0709 0.0232,0.13716 0.0796,0.19237 0.0523,0.0587 0.11566,0.0849 0.18772,0.0849 h 1.22097 c 0.0738,0 0.13251,-0.0291 0.18889,-0.0849 0.0523,-0.0581 0.0802,-0.12147 0.0802,-0.19353 v -4.52249 c 0,-0.39056 -0.0349,-0.75195 -0.0982,-1.09183 -0.0587,-0.3336 -0.17087,-0.6289 -0.32779,-0.88416"
       fill="#231f20"
       class="mkkdsak4732"
       id="path21"
       style="stroke-width:0.0264583" />
    <path
       d="m 308.13385,198.41642 c 0,0.55039 -0.12322,0.98727 -0.36267,1.31169 -0.23538,0.31966 -0.59206,0.48297 -1.06259,0.48297 -0.46902,0 -0.82576,-0.16273 -1.06259,-0.48297 -0.2412,-0.3243 -0.35976,-0.76113 -0.35976,-1.31169 v -1.07637 c 0,-0.55039 0.11856,-0.98727 0.35976,-1.31169 0.23712,-0.32314 0.59357,-0.48588 1.06259,-0.48588 0.47076,0 0.82733,0.16274 1.06259,0.48588 0.24003,0.32431 0.36267,0.76119 0.36267,1.31169 z m 0.94106,-3.44449 c -0.26444,-0.2906 -0.59508,-0.52598 -0.9918,-0.69197 -0.39347,-0.17087 -0.8504,-0.25398 -1.37475,-0.25398 -0.52424,0 -0.9857,0.0831 -1.37627,0.25398 -0.39521,0.16622 -0.72736,0.40161 -0.99337,0.69197 -0.26444,0.29234 -0.46611,0.63966 -0.60281,1.04411 -0.13832,0.40277 -0.20749,0.84424 -0.20749,1.32401 v 1.07637 c 0,0.47948 0.0692,0.91962 0.20749,1.32558 0.13716,0.40277 0.33825,0.75038 0.60281,1.04254 0.26619,0.2906 0.59816,0.52598 0.99337,0.69354 0.39057,0.16622 0.85192,0.24933 1.37627,0.24933 0.52423,0 0.98105,-0.0831 1.37475,-0.24933 0.39695,-0.16738 0.72736,-0.40277 0.9918,-0.69354 0.26619,-0.29234 0.47077,-0.63966 0.6074,-1.04254 0.13717,-0.40567 0.20749,-0.84581 0.20749,-1.32558 v -1.07637 c 0,-0.48006 -0.0709,-0.92113 -0.20749,-1.32401 -0.13658,-0.40451 -0.34116,-0.75195 -0.6074,-1.04411"
       fill="#231f20"
       class="mkkdsak4732"
       id="path22"
       style="stroke-width:0.0264583" />
    <path
       d="m 315.8902,194.19842 c -0.15402,-0.0465 -0.37836,-0.0831 -0.66587,-0.11972 -0.29351,-0.0349 -0.64582,-0.0523 -1.05179,-0.0523 -0.43357,0 -0.83807,0.0662 -1.20405,0.19993 -0.36906,0.13251 -0.68738,0.33651 -0.95955,0.60432 -0.26735,0.272 -0.47832,0.60892 -0.63664,1.0118 -0.15517,0.40451 -0.23073,0.87649 -0.23073,1.41782 v 1.23631 c 0,0.54109 0.0756,1.01028 0.23073,1.41624 0.15867,0.40451 0.36906,0.74277 0.63664,1.01186 0.272,0.27083 0.59049,0.47367 0.95955,0.60432 0.36615,0.13368 0.77043,0.19819 1.20405,0.19819 0.40626,0 0.75811,-0.0174 1.05179,-0.0523 0.28769,-0.0349 0.51203,-0.0738 0.66587,-0.11972 0.11101,-0.0232 0.19063,-0.0645 0.22434,-0.11217 0.0349,-0.0465 0.0523,-0.12787 0.0523,-0.23074 v -0.86574 c 0,-0.0721 -0.0233,-0.12321 -0.0663,-0.15402 -0.0465,-0.0291 -0.10171,-0.0465 -0.17552,-0.0465 h -0.0349 c -0.13368,0.0174 -0.25689,0.0349 -0.37836,0.0465 -0.11217,0.0116 -0.23073,0.0174 -0.35336,0.0291 -0.12438,0.003 -0.26619,0.0116 -0.42776,0.0116 -0.15808,0.006 -0.34581,0.006 -0.55794,0.006 -0.15983,0 -0.31385,-0.0291 -0.46728,-0.0802 -0.15053,-0.0523 -0.28304,-0.14297 -0.40277,-0.27083 -0.12321,-0.12903 -0.21853,-0.30571 -0.2935,-0.53353 -0.0756,-0.22609 -0.11043,-0.51029 -0.11043,-0.85808 v -1.23631 c 0,-0.34464 0.0349,-0.63204 0.11043,-0.86115 0.0756,-0.22608 0.17087,-0.40102 0.2935,-0.53063 0.11973,-0.12612 0.25224,-0.21969 0.40277,-0.27374 0.15401,-0.0523 0.30745,-0.0767 0.46728,-0.0767 0.21213,0 0.39986,0.002 0.55794,0.006 0.16157,0.003 0.3028,0.006 0.42776,0.0116 0.12321,0.005 0.24119,0.0116 0.35336,0.0232 0.12147,0.0116 0.24468,0.0291 0.37836,0.0465 h 0.0349 c 0.0738,0 0.12902,-0.0174 0.17552,-0.0465 0.0465,-0.0291 0.0663,-0.0831 0.0663,-0.15227 v -0.86267 c 0,-0.10926 -0.0233,-0.18482 -0.0523,-0.23364 -0.0349,-0.0465 -0.11392,-0.0878 -0.22434,-0.11565"
       fill="#231f20"
       class="mkkdsak4732"
       id="path23"
       style="stroke-width:0.0264583" />
    <path
       d="m 321.02927,194.02621 c -0.26909,0 -0.56608,0.0465 -0.90567,0.12787 -0.33825,0.0814 -0.67046,0.25398 -0.99802,0.51203 v -0.28014 c 0,-0.0721 -0.0233,-0.13367 -0.0767,-0.18772 -0.0523,-0.0523 -0.11682,-0.0785 -0.18598,-0.0785 h -1.15948 c -0.0709,0 -0.13716,0.0232 -0.18598,0.0785 -0.0523,0.0523 -0.0802,0.11565 -0.0802,0.18772 v 6.95518 c 0,0.0738 0.0291,0.14007 0.0802,0.19354 0.0465,0.0581 0.11507,0.086 0.18598,0.086 h 1.22556 c 0.0692,0 0.13251,-0.0291 0.18424,-0.086 0.0523,-0.0523 0.0802,-0.11973 0.0802,-0.19354 v -5.34667 c 0.28479,-0.15053 0.57073,-0.26735 0.86115,-0.35395 0.28304,-0.0814 0.60892,-0.12321 0.97489,-0.12321 0.0692,0 0.13252,-0.0291 0.18482,-0.0831 0.0581,-0.0523 0.0814,-0.11217 0.0814,-0.18308 v -0.95954 c 0,-0.0709 -0.0291,-0.13252 -0.0814,-0.18773 -0.0523,-0.0523 -0.11507,-0.0785 -0.18482,-0.0785"
       fill="#231f20"
       class="mkkdsak4732"
       id="path24"
       style="stroke-width:0.0264583" />
    <path
       d="m 323.97562,193.28194 h 1.14251 c 0.0814,0 0.13716,-0.0116 0.17842,-0.0407 0.0407,-0.0291 0.0878,-0.0738 0.14007,-0.13368 l 1.57154,-1.64849 c 0.0349,-0.0349 0.0523,-0.0709 0.0523,-0.10636 0,-0.0628 -0.0465,-0.0982 -0.14762,-0.0982 h -1.39475 c -0.0907,0 -0.15692,0.0174 -0.19528,0.0465 -0.0407,0.0291 -0.0907,0.0843 -0.15401,0.15517 l -1.26252,1.59619 c -0.0349,0.0349 -0.0523,0.0802 -0.0523,0.13251 0,0.0628 0.0407,0.0924 0.12147,0.0924"
       fill="#231f20"
       class="mkkdsak4732"
       id="path25"
       style="stroke-width:0.0264583" />
    <path
       d="m 325.89007,199.96036 c -0.19528,0.10635 -0.41497,0.19528 -0.64582,0.26909 -0.2412,0.0662 -0.47832,0.10171 -0.72277,0.10171 -0.33361,0 -0.58125,-0.0523 -0.73039,-0.16448 -0.15053,-0.10927 -0.23073,-0.3307 -0.23073,-0.65971 v -0.0523 c 0,-0.18598 0.0233,-0.35046 0.0616,-0.49343 0.0407,-0.14007 0.11565,-0.25805 0.22434,-0.3522 0.11507,-0.0924 0.26618,-0.16448 0.45798,-0.21388 0.19237,-0.0407 0.43996,-0.0692 0.74427,-0.0692 h 0.8411 z m -1.17325,-5.93415 c -0.45856,0 -0.87807,0.0233 -1.25788,0.0663 -0.37545,0.0465 -0.69353,0.0924 -0.96111,0.14297 -0.16739,0.0407 -0.25224,0.12903 -0.25224,0.28014 v 0.84575 c 0,0.0936 0.0233,0.15692 0.0634,0.18307 0.0465,0.0291 0.10171,0.0407 0.17842,0.0407 h 0.0663 c 0.21969,-0.0233 0.52423,-0.0523 0.93031,-0.0738 0.39812,-0.0232 0.80734,-0.0349 1.23329,-0.0349 0.40102,0 0.69505,0.0709 0.88725,0.21388 0.18889,0.14298 0.28595,0.43357 0.28595,0.87342 v 0.59049 h -0.83808 c -0.57654,0 -1.0687,0.0465 -1.48541,0.14762 -0.41207,0.0971 -0.74736,0.24294 -1.0057,0.43648 -0.2627,0.19528 -0.45507,0.43356 -0.57363,0.71969 -0.11973,0.28304 -0.17552,0.61507 -0.17552,0.99645 v 0.0523 c 0,0.45391 0.0634,0.82116 0.19993,1.10414 0.14006,0.28595 0.31675,0.51378 0.53353,0.67814 0.21388,0.16738 0.46612,0.28304 0.73503,0.34581 0.2784,0.0628 0.55504,0.0907 0.82425,0.0907 0.3214,0 0.63972,-0.0523 0.94723,-0.15053 0.31093,-0.1017 0.61821,-0.24468 0.93345,-0.43182 v 0.21504 c 0,0.0709 0.0291,0.13251 0.0802,0.18598 0.0465,0.0523 0.10927,0.0767 0.18482,0.0767 h 1.13019 c 0.0721,0 0.13251,-0.0232 0.18133,-0.0767 0.0587,-0.0523 0.086,-0.11507 0.086,-0.18598 v -4.79001 c 0,-0.86423 -0.25398,-1.4993 -0.75346,-1.91607 -0.49983,-0.41672 -1.22713,-0.62583 -2.17744,-0.62583"
       fill="#231f20"
       class="mkkdsak4732"
       id="path26"
       style="stroke-width:0.0264583" />
    <path
       d="m 332.86989,200.35859 h -0.70586 c -0.12321,0 -0.21969,-0.006 -0.28304,-0.0232 -0.0692,-0.0116 -0.11972,-0.0407 -0.15401,-0.0982 -0.0349,-0.0523 -0.0616,-0.12786 -0.0692,-0.22608 -0.006,-0.0971 -0.0116,-0.22899 -0.0116,-0.39986 v -4.17802 h 1.19633 c 0.0738,0 0.13541,-0.0232 0.18772,-0.0767 0.0523,-0.0523 0.0785,-0.11508 0.0785,-0.18773 v -0.78269 c 0,-0.0738 -0.0233,-0.13542 -0.0785,-0.18947 -0.0523,-0.0523 -0.11391,-0.0785 -0.18772,-0.0785 h -1.19633 v -1.36667 c 0,-0.13542 -0.0692,-0.19993 -0.21213,-0.19993 h -0.0465 l -1.23172,0.21213 c -0.0709,0.0174 -0.13367,0.0465 -0.18308,0.0936 -0.0523,0.0407 -0.0802,0.10171 -0.0802,0.17204 v 1.09026 h -1.24706 c -0.0721,0 -0.13368,0.0232 -0.18773,0.0785 -0.0523,0.0523 -0.0814,0.11565 -0.0814,0.18946 v 0.59817 c 0,0.0721 0.0291,0.12902 0.0814,0.17377 0.0523,0.0407 0.11508,0.0756 0.18773,0.0924 l 1.24706,0.18308 v 4.17801 c 0,0.44578 0.0407,0.80425 0.11856,1.08718 0.0802,0.27665 0.20284,0.49343 0.3708,0.6428 0.16739,0.14936 0.38301,0.25398 0.65971,0.30745 0.26154,0.0523 0.58125,0.0767 0.95182,0.0767 0.15227,0 0.3028,-0.006 0.44926,-0.0232 0.14472,-0.0174 0.29816,-0.0407 0.45856,-0.0674 0.16913,-0.0291 0.25689,-0.10636 0.25689,-0.23713 v -0.83959 c 0,-0.13193 -0.0953,-0.19993 -0.2842,-0.19993"
       fill="#231f20"
       class="mkkdsak4732"
       id="path27"
       style="stroke-width:0.0264583" />
    <path
       d="m 336.07452,191.42131 h -1.2917 c -0.0709,0 -0.13716,0.0232 -0.19353,0.0767 -0.0523,0.0581 -0.086,0.11508 -0.086,0.18772 v 1.1718 c 0,0.0692 0.0349,0.13252 0.086,0.18598 0.0581,0.0523 0.12321,0.0785 0.19353,0.0785 h 1.2917 c 0.0738,0 0.13251,-0.0233 0.18889,-0.0785 0.0465,-0.0523 0.0767,-0.11681 0.0767,-0.18598 v -1.1718 c 0,-0.0721 -0.0291,-0.13251 -0.0767,-0.18772 -0.0581,-0.0523 -0.11508,-0.0767 -0.18889,-0.0767"
       fill="#231f20"
       class="mkkdsak4732"
       id="path28"
       style="stroke-width:0.0264583" />
    <path
       d="m 336.03454,194.12002 h -1.22556 c -0.0692,0 -0.13077,0.0232 -0.18482,0.0785 -0.0523,0.0523 -0.0802,0.11566 -0.0802,0.18947 v 6.95518 c 0,0.0721 0.0291,0.14006 0.0802,0.19353 0.0523,0.0587 0.11507,0.0849 0.18482,0.0849 h 1.22556 c 0.0663,0 0.13251,-0.0291 0.18598,-0.0849 0.0523,-0.0523 0.0767,-0.12146 0.0767,-0.19353 v -6.95518 c 0,-0.0738 -0.0232,-0.13542 -0.0767,-0.18947 -0.0523,-0.0523 -0.11973,-0.0785 -0.18598,-0.0785"
       fill="#231f20"
       class="mkkdsak4732"
       id="path29"
       style="stroke-width:0.0264583" />
    <path
       d="m 342.31466,194.19842 c -0.15053,-0.0465 -0.3708,-0.0831 -0.66738,-0.11972 -0.28885,-0.0349 -0.6428,-0.0523 -1.04719,-0.0523 -0.43531,0 -0.83808,0.0662 -1.20563,0.19993 -0.36731,0.13251 -0.68737,0.33651 -0.95646,0.60432 -0.26909,0.272 -0.48414,0.60892 -0.63815,1.0118 -0.15867,0.40451 -0.23248,0.87649 -0.23248,1.41782 v 1.23631 c 0,0.54109 0.0738,1.01028 0.23248,1.41624 0.15401,0.40451 0.36906,0.74277 0.63815,1.01186 0.26909,0.27083 0.58898,0.47367 0.95646,0.60432 0.36732,0.13368 0.77043,0.19819 1.20563,0.19819 0.40451,0 0.75811,-0.0174 1.04719,-0.0523 0.29699,-0.0349 0.51668,-0.0738 0.66738,-0.11972 0.11392,-0.0232 0.18889,-0.0645 0.22783,-0.11217 0.0349,-0.0465 0.0523,-0.12787 0.0523,-0.23074 v -0.86574 c 0,-0.0721 -0.0233,-0.12321 -0.0692,-0.15402 -0.0407,-0.0291 -0.0982,-0.0465 -0.16913,-0.0465 h -0.0407 c -0.13367,0.0174 -0.25863,0.0349 -0.3708,0.0465 -0.11507,0.0116 -0.23363,0.0174 -0.3615,0.0291 -0.12321,0.003 -0.26734,0.0116 -0.42136,0.0116 -0.16157,0.006 -0.3493,0.006 -0.56143,0.006 -0.16157,0 -0.31849,-0.0291 -0.46437,-0.0802 -0.15228,-0.0523 -0.28769,-0.14297 -0.40742,-0.27083 -0.12321,-0.12903 -0.21853,-0.30571 -0.29234,-0.53353 -0.0756,-0.22609 -0.11566,-0.51029 -0.11566,-0.85808 v -1.23631 c 0,-0.34464 0.0407,-0.63204 0.11566,-0.86115 0.0738,-0.22608 0.16913,-0.40102 0.29234,-0.53063 0.11973,-0.12612 0.25514,-0.21969 0.40742,-0.27374 0.14588,-0.0523 0.3028,-0.0767 0.46437,-0.0767 0.21213,0 0.39986,0.002 0.56143,0.006 0.15402,0.003 0.29815,0.006 0.42136,0.0116 0.12787,0.005 0.24585,0.0116 0.3615,0.0232 0.11217,0.0116 0.23713,0.0291 0.3708,0.0465 h 0.0407 c 0.0709,0 0.12612,-0.0174 0.16913,-0.0465 0.0465,-0.0291 0.0692,-0.0831 0.0692,-0.15227 v -0.86267 c 0,-0.10926 -0.0174,-0.18482 -0.0523,-0.23364 -0.0407,-0.0465 -0.11391,-0.0878 -0.22783,-0.11565"
       fill="#231f20"
       class="mkkdsak4732"
       id="path30"
       style="stroke-width:0.0264583" />
    <path
       d="m 348.06271,198.41642 c 0,0.55039 -0.11682,0.98727 -0.35976,1.31169 -0.23829,0.31966 -0.59206,0.48297 -1.06259,0.48297 -0.46903,0 -0.82576,-0.16273 -1.06568,-0.48297 -0.23538,-0.3243 -0.35685,-0.76113 -0.35685,-1.31169 v -1.07637 c 0,-0.55039 0.12147,-0.98727 0.35685,-1.31169 0.24004,-0.32314 0.59665,-0.48588 1.06568,-0.48588 0.47076,0 0.82424,0.16274 1.06259,0.48588 0.24294,0.32431 0.35976,0.76119 0.35976,1.31169 z m 1.55155,-2.40038 c -0.13658,-0.40451 -0.34,-0.75195 -0.60584,-1.04411 -0.26444,-0.2906 -0.59357,-0.52598 -0.99186,-0.69197 -0.39521,-0.17087 -0.85191,-0.25398 -1.37626,-0.25398 -0.52424,0 -0.9857,0.0831 -1.37783,0.25398 -0.39231,0.16622 -0.72271,0.40161 -0.98873,0.69197 -0.26618,0.29234 -0.46902,0.63966 -0.60438,1.04411 -0.14006,0.40277 -0.20923,0.84424 -0.20923,1.32401 v 1.07637 c 0,0.47948 0.0692,0.91962 0.20923,1.32558 0.13542,0.40277 0.33826,0.75038 0.60438,1.04254 0.26619,0.2906 0.5966,0.52598 0.98873,0.69354 0.3923,0.16622 0.85348,0.24933 1.37783,0.24933 0.52423,0 0.98105,-0.0831 1.37626,-0.24933 0.39812,-0.16738 0.72736,-0.40277 0.99186,-0.69354 0.26619,-0.29234 0.46902,-0.63966 0.60584,-1.04254 0.13832,-0.40567 0.20632,-0.84581 0.20632,-1.32558 v -1.07637 c 0,-0.48006 -0.0674,-0.92113 -0.20632,-1.32401"
       fill="#231f20"
       class="mkkdsak4732"
       id="path31"
       style="stroke-width:0.0264583" />
    <path
       d="m 410.36873,104.5438 c 0,12.87854 -10.43663,23.31823 -23.31828,23.31823 -12.87544,0 -23.31515,-10.43969 -23.31515,-23.31823 0,-12.875469 10.43971,-23.316701 23.31515,-23.316701 12.88165,0 23.31828,10.441232 23.31828,23.316701"
       fill="#043f88"
       class="mkkdsak4732"
       id="path32"
       style="stroke-width:0.0264583" />
    <path
       d="m 384.48553,114.78666 c -1.54388,1.37781 -3.75363,2.06517 -6.62762,2.06517 -1.04725,0 -2.1421,-0.08 -3.27693,-0.2445 -1.14565,-0.15995 -2.18819,-0.39521 -3.13856,-0.69814 -0.17552,-0.0413 -0.32139,-0.11228 -0.44868,-0.21068 -0.12786,-0.1 -0.18772,-0.26758 -0.17842,-0.50285 l 0.0878,-2.56801 c 0.006,-0.17529 0.0645,-0.31524 0.17842,-0.42288 0.11392,-0.10921 0.25863,-0.16453 0.43357,-0.16453 h 0.0645 c 0.52132,0.0631 1.05951,0.12146 1.6146,0.16453 0.55504,0.0448 1.0995,0.08 1.63001,0.11223 0.53528,0.0337 1.03185,0.0615 1.48855,0.0831 0.45682,0.0198 0.83808,0.0326 1.14408,0.0326 0.78577,0 1.42241,-0.0815 1.90526,-0.2491 0.48762,-0.16146 0.87801,-0.39829 1.17482,-0.70582 0.29234,-0.30449 0.49692,-0.67814 0.60892,-1.11486 0.11217,-0.44136 0.18133,-0.94417 0.20167,-1.51621 l 0.006,-0.26293 c 0.0232,-0.54591 -0.0349,-1.01337 -0.16331,-1.39473 -0.12786,-0.38446 -0.36731,-0.69813 -0.71655,-0.93955 -0.35395,-0.23835 -0.82582,-0.41672 -1.41015,-0.52743 -0.57945,-0.10613 -1.33627,-0.16146 -2.24968,-0.16146 h -5.07456 c -0.13367,0 -0.23538,-0.0523 -0.32139,-0.14605 -0.086,-0.10148 -0.12438,-0.20603 -0.11973,-0.31216 l 0.002,-0.0337 1.44089,-12.211164 c 0.0291,-0.172207 0.10578,-0.321399 0.23073,-0.436708 0.12322,-0.123038 0.272,-0.183017 0.44927,-0.183017 h 12.70328 c 0.17842,0 0.32605,0.05998 0.45042,0.183017 0.12322,0.115309 0.18482,0.264501 0.18308,0.436708 l -0.11857,3.275376 c -0.006,0.173776 -0.0785,0.324479 -0.20748,0.442868 -0.13716,0.118389 -0.29234,0.178368 -0.46437,0.178368 h -8.87736 l -0.55213,4.517862 h 0.95036 c 1.41776,0 2.71562,0.11531 3.89201,0.34291 1.17942,0.22759 2.19278,0.62278 3.04318,1.1779 0.84575,0.55509 1.49157,1.304 1.93752,2.24048 0.44287,0.94109 0.6428,2.12054 0.59049,3.5368 l -0.006,0.26142 c -0.0971,2.59723 -0.91032,4.58245 -2.46036,5.95565"
       fill="#ffffff"
       class="mkkdsak4732"
       id="path33"
       style="stroke-width:0.0264583" />
    <path
       d="m 400.82242,114.78666 c -1.54695,1.37781 -3.75513,2.06517 -6.63227,2.06517 -1.0487,0 -2.14053,-0.08 -3.27995,-0.2445 -1.141,-0.15995 -2.18511,-0.39521 -3.13239,-0.69814 -0.17552,-0.0413 -0.32431,-0.11228 -0.45043,-0.21068 -0.12612,-0.1 -0.18888,-0.26758 -0.18133,-0.50285 l 0.0907,-2.56801 c 0.005,-0.17529 0.0645,-0.31524 0.17842,-0.42288 0.11217,-0.10921 0.25515,-0.16453 0.43067,-0.16453 h 0.0645 c 0.52133,0.0631 1.05945,0.12146 1.61612,0.16453 0.55504,0.0448 1.09799,0.08 1.63158,0.11223 0.53179,0.0337 1.02871,0.0615 1.48849,0.0831 0.45391,0.0198 0.835,0.0326 1.14099,0.0326 0.78734,0 1.42398,-0.0815 1.90684,-0.2491 0.48762,-0.16146 0.87649,-0.39829 1.17325,-0.70582 0.29234,-0.30449 0.49808,-0.67814 0.61205,-1.11486 0.11217,-0.44136 0.17843,-0.94417 0.19993,-1.51621 l 0.006,-0.26293 c 0.0233,-0.54591 -0.0349,-1.01337 -0.16273,-1.39473 -0.12786,-0.38446 -0.36731,-0.69813 -0.71969,-0.93955 -0.35046,-0.23835 -0.81809,-0.41672 -1.40242,-0.52743 -0.58741,-0.10613 -1.33935,-0.16146 -2.25432,-0.16146 h -5.0745 c -0.12903,0 -0.23713,-0.0523 -0.31966,-0.14605 -0.0848,-0.10148 -0.12437,-0.20603 -0.12147,-0.31216 v -0.0337 l 1.44089,-12.211164 c 0.0291,-0.172207 0.10927,-0.321399 0.23248,-0.436708 0.12321,-0.123038 0.272,-0.183017 0.44926,-0.183017 h 12.70474 c 0.17552,0 0.3243,0.05998 0.44751,0.183017 0.12903,0.115309 0.18889,0.264501 0.18482,0.436708 l -0.11682,3.275376 c -0.006,0.173776 -0.0767,0.324479 -0.21039,0.442868 -0.13542,0.118389 -0.28769,0.178368 -0.45798,0.178368 h -8.882 l -0.54865,4.517862 h 0.94723 c 1.41782,0 2.71562,0.11531 3.89352,0.34291 1.17639,0.22759 2.19132,0.62278 3.04015,1.1779 0.85035,0.55509 1.49622,1.304 1.9406,2.24048 0.44287,0.94109 0.63972,2.12054 0.59201,3.5368 l -0.0116,0.26142 c -0.0924,2.59723 -0.91038,4.58245 -2.45426,5.95565"
       fill="#ffffff"
       class="mkkdsak4732"
       id="path34"
       style="stroke-width:0.0264583" />
  </g>
</svg>
